<svg width="358" height="74" viewBox="0 0 358 74" fill="none" xmlns="http://www.w3.org/2000/svg">
<g clip-path="url(#clip0_32_922)">
<rect width="358" height="74" rx="4" fill="#878787"/>
<rect width="246" height="29" transform="translate(63 16)" fill="#878787"/>
<path d="M73.6084 32.6348C73.6403 33.013 73.7406 33.3594 73.9092 33.6738C74.0824 33.9837 74.3148 34.2526 74.6064 34.4805C74.8981 34.7083 75.2445 34.8838 75.6455 35.0068C76.0465 35.1299 76.4932 35.1914 76.9854 35.1914C77.7054 35.1914 78.3252 35.0775 78.8447 34.8496C79.3688 34.6172 79.7721 34.2913 80.0547 33.8721C80.3418 33.4482 80.4854 32.9538 80.4854 32.3887C80.4854 31.9375 80.3965 31.5479 80.2188 31.2197C80.041 30.8916 79.7721 30.6159 79.4121 30.3926C79.0521 30.1693 78.5986 29.9847 78.0518 29.8389L76.459 29.4219C76.0352 29.3125 75.7093 29.1462 75.4814 28.9229C75.2581 28.6995 75.1465 28.4238 75.1465 28.0957C75.1465 27.6354 75.3265 27.2617 75.6865 26.9746C76.0465 26.6875 76.5205 26.5439 77.1084 26.5439C77.473 26.5439 77.7943 26.6009 78.0723 26.7148C78.3503 26.8242 78.5781 26.9792 78.7559 27.1797C78.9336 27.3802 79.0498 27.6195 79.1045 27.8975H80.3691C80.3236 27.4235 80.1595 27.002 79.877 26.6328C79.599 26.2637 79.2253 25.9743 78.7559 25.7646C78.2865 25.555 77.7441 25.4502 77.1289 25.4502C76.5 25.4502 75.9395 25.5664 75.4473 25.7988C74.9596 26.0267 74.5745 26.3457 74.292 26.7559C74.0094 27.1615 73.8682 27.6263 73.8682 28.1504C73.8682 28.5651 73.9548 28.9365 74.1279 29.2646C74.3011 29.5882 74.5518 29.8639 74.8799 30.0918C75.208 30.3197 75.6068 30.4928 76.0762 30.6113L77.6963 31.0352C78.2158 31.1673 78.5986 31.3496 78.8447 31.582C79.0908 31.8099 79.2139 32.1107 79.2139 32.4844C79.2139 32.8125 79.1296 33.0973 78.9609 33.3389C78.7923 33.5804 78.5508 33.7673 78.2363 33.8994C77.9264 34.0316 77.5527 34.0977 77.1152 34.0977C76.8099 34.0977 76.5296 34.0635 76.2744 33.9951C76.0238 33.9222 75.8005 33.8219 75.6045 33.6943C75.4131 33.5667 75.2559 33.4141 75.1328 33.2363C75.0098 33.0586 74.9255 32.8581 74.8799 32.6348H73.6084ZM84.5773 27.6924C83.9803 27.6924 83.4471 27.8223 82.9777 28.082C82.5083 28.3418 82.1392 28.7087 81.8703 29.1826C81.6014 29.6566 81.467 30.2194 81.467 30.8711V31.9307C81.467 32.6097 81.5992 33.1885 81.8635 33.667C82.1324 34.141 82.4992 34.501 82.9641 34.7471C83.4335 34.9932 83.9712 35.1162 84.5773 35.1162C85.1743 35.1162 85.7053 34.9932 86.1701 34.7471C86.6395 34.4964 87.0087 34.1341 87.2775 33.6602C87.5464 33.1816 87.6809 32.6051 87.6809 31.9307V30.8643C87.6809 30.1989 87.5464 29.6292 87.2775 29.1553C87.0087 28.6768 86.6395 28.3145 86.1701 28.0684C85.7053 27.8177 85.1743 27.6924 84.5773 27.6924ZM84.5842 28.7451C84.967 28.7451 85.2974 28.8408 85.5754 29.0322C85.8534 29.2191 86.0653 29.4788 86.2111 29.8115C86.3615 30.1442 86.4367 30.5316 86.4367 30.9736V31.8418C86.4367 32.2884 86.3638 32.6781 86.218 33.0107C86.0767 33.3434 85.8671 33.6032 85.5891 33.79C85.3156 33.9769 84.9807 34.0703 84.5842 34.0703C84.1831 34.0703 83.8413 33.9769 83.5588 33.79C83.2808 33.6032 83.0689 33.3434 82.923 33.0107C82.7772 32.6781 82.7043 32.2884 82.7043 31.8418V30.9736C82.7043 30.5361 82.7795 30.151 82.9299 29.8184C83.0848 29.4811 83.3013 29.2191 83.5793 29.0322C83.8618 28.8408 84.1968 28.7451 84.5842 28.7451ZM91.9342 27.8291H90.8268V28.834H91.9273V32.9834C91.9273 33.4574 91.982 33.8493 92.0914 34.1592C92.2008 34.4645 92.4036 34.6924 92.6998 34.8428C93.0006 34.9886 93.4358 35.0615 94.0055 35.0615C94.1422 35.0615 94.3108 35.0547 94.5113 35.041C94.7118 35.0273 94.8372 35.0137 94.8873 35V34.0088C94.8326 34.0133 94.746 34.0202 94.6275 34.0293C94.509 34.0384 94.4065 34.043 94.3199 34.043C93.8824 34.043 93.5794 33.9723 93.4107 33.8311C93.2421 33.6852 93.1578 33.4004 93.1578 32.9766V28.834H94.7848V27.8291H93.1578V26.0244H91.9342V27.8291ZM96.1287 35H97.366V30.9941C97.366 30.5794 97.4367 30.2035 97.5779 29.8662C97.7192 29.529 97.9288 29.2624 98.2068 29.0664C98.4848 28.8704 98.8289 28.7725 99.2391 28.7725C99.5626 28.7725 99.8429 28.8363 100.08 28.9639C100.321 29.0915 100.506 29.2852 100.634 29.5449C100.766 29.8001 100.832 30.1169 100.832 30.4951V35H102.069V30.1055C102.069 29.2988 101.839 28.695 101.379 28.2939C100.923 27.8929 100.346 27.6924 99.6492 27.6924C99.1525 27.6924 98.7492 27.7767 98.4393 27.9453C98.1294 28.1094 97.8947 28.3053 97.7352 28.5332C97.5802 28.7565 97.4777 28.9502 97.4275 29.1143H97.366V25.1768H96.1287V35ZM106.489 35.1162C106.945 35.1162 107.341 35.0547 107.679 34.9316C108.016 34.8086 108.299 34.6514 108.526 34.46C108.754 34.264 108.93 34.0566 109.053 33.8379C109.18 33.6191 109.258 33.4141 109.285 33.2227H108.014C107.973 33.3685 107.884 33.5075 107.747 33.6396C107.615 33.7673 107.439 33.8721 107.221 33.9541C107.007 34.0316 106.76 34.0703 106.482 34.0703C105.885 34.0703 105.43 33.8789 105.115 33.4961C104.801 33.1133 104.644 32.6439 104.644 32.0879V31.7256H109.381V30.8574C109.381 30.2148 109.253 29.6566 108.998 29.1826C108.743 28.7087 108.39 28.3418 107.938 28.082C107.492 27.8223 106.977 27.6924 106.394 27.6924C105.824 27.6924 105.313 27.8223 104.862 28.082C104.411 28.3372 104.056 28.7018 103.796 29.1758C103.541 29.6452 103.413 30.2057 103.413 30.8574V31.9512C103.413 32.5983 103.534 33.1589 103.775 33.6328C104.021 34.1068 104.375 34.4736 104.835 34.7334C105.295 34.9886 105.847 35.1162 106.489 35.1162ZM104.644 30.8301C104.644 30.8118 104.644 30.7936 104.644 30.7754C104.644 30.7572 104.644 30.7367 104.644 30.7139C104.644 30.3174 104.716 29.971 104.862 29.6748C105.008 29.374 105.213 29.1416 105.478 28.9775C105.742 28.8135 106.049 28.7314 106.4 28.7314C106.751 28.7314 107.057 28.8135 107.316 28.9775C107.581 29.1416 107.786 29.374 107.932 29.6748C108.077 29.971 108.15 30.3174 108.15 30.7139C108.15 30.7367 108.15 30.7572 108.15 30.7754C108.15 30.7936 108.15 30.8118 108.15 30.8301H104.644ZM119.041 27.8086H117.804V32.3408C117.804 32.6462 117.722 32.9287 117.558 33.1885C117.399 33.4482 117.18 33.6556 116.902 33.8105C116.624 33.9609 116.307 34.0361 115.952 34.0361C115.664 34.0361 115.402 33.9883 115.165 33.8926C114.933 33.7969 114.744 33.6351 114.598 33.4072C114.457 33.1748 114.386 32.8604 114.386 32.4639V27.8086H113.149V32.7988C113.149 33.3548 113.254 33.8037 113.463 34.1455C113.673 34.4827 113.962 34.7288 114.331 34.8838C114.705 35.0387 115.131 35.1162 115.61 35.1162C116.029 35.1162 116.385 35.0479 116.676 34.9111C116.972 34.7699 117.207 34.599 117.38 34.3984C117.558 34.1979 117.681 33.9997 117.749 33.8037H117.818V35H119.041V27.8086ZM120.433 29.873C120.433 30.3424 120.543 30.7048 120.761 30.96C120.98 31.2152 121.272 31.4089 121.636 31.541C122.005 31.6686 122.413 31.778 122.86 31.8691C123.193 31.9329 123.496 32.0036 123.769 32.0811C124.043 32.154 124.259 32.2611 124.419 32.4023C124.578 32.5436 124.658 32.7487 124.658 33.0176C124.658 33.2272 124.603 33.4163 124.494 33.585C124.384 33.7536 124.211 33.8903 123.974 33.9951C123.742 34.0999 123.436 34.1523 123.058 34.1523C122.726 34.1523 122.45 34.1113 122.231 34.0293C122.012 33.9427 121.846 33.8219 121.732 33.667C121.618 33.512 121.545 33.3275 121.513 33.1133H120.303C120.303 33.5417 120.417 33.9062 120.645 34.207C120.873 34.5033 121.19 34.7288 121.595 34.8838C122.001 35.0387 122.47 35.1162 123.004 35.1162C123.578 35.1162 124.079 35.0296 124.507 34.8564C124.94 34.6833 125.275 34.4303 125.512 34.0977C125.754 33.7604 125.875 33.3525 125.875 32.874C125.875 32.4046 125.763 32.04 125.54 31.7803C125.316 31.516 125.018 31.3177 124.644 31.1855C124.275 31.0488 123.865 30.9417 123.414 30.8643C123.213 30.8278 123.008 30.7891 122.798 30.748C122.589 30.707 122.395 30.6501 122.217 30.5771C122.044 30.4997 121.903 30.3971 121.794 30.2695C121.684 30.1374 121.629 29.9642 121.629 29.75C121.629 29.3991 121.764 29.1302 122.033 28.9434C122.306 28.7565 122.653 28.6631 123.072 28.6631C123.395 28.6631 123.662 28.7155 123.872 28.8203C124.086 28.9206 124.248 29.0505 124.357 29.21C124.466 29.3695 124.528 29.5335 124.542 29.7021H125.69C125.69 29.2965 125.583 28.9456 125.369 28.6494C125.155 28.3486 124.854 28.1139 124.466 27.9453C124.084 27.7767 123.632 27.6924 123.113 27.6924C122.648 27.6924 122.211 27.7676 121.8 27.918C121.395 28.0684 121.064 28.3053 120.809 28.6289C120.559 28.9479 120.433 29.3626 120.433 29.873ZM129.926 35.1162C130.381 35.1162 130.778 35.0547 131.115 34.9316C131.452 34.8086 131.735 34.6514 131.963 34.46C132.191 34.264 132.366 34.0566 132.489 33.8379C132.617 33.6191 132.694 33.4141 132.721 33.2227H131.45C131.409 33.3685 131.32 33.5075 131.183 33.6396C131.051 33.7673 130.876 33.8721 130.657 33.9541C130.443 34.0316 130.197 34.0703 129.919 34.0703C129.322 34.0703 128.866 33.8789 128.552 33.4961C128.237 33.1133 128.08 32.6439 128.08 32.0879V31.7256H132.817V30.8574C132.817 30.2148 132.69 29.6566 132.434 29.1826C132.179 28.7087 131.826 28.3418 131.375 28.082C130.928 27.8223 130.413 27.6924 129.83 27.6924C129.26 27.6924 128.75 27.8223 128.299 28.082C127.847 28.3372 127.492 28.7018 127.232 29.1758C126.977 29.6452 126.849 30.2057 126.849 30.8574V31.9512C126.849 32.5983 126.97 33.1589 127.212 33.6328C127.458 34.1068 127.811 34.4736 128.271 34.7334C128.732 34.9886 129.283 35.1162 129.926 35.1162ZM128.08 30.8301C128.08 30.8118 128.08 30.7936 128.08 30.7754C128.08 30.7572 128.08 30.7367 128.08 30.7139C128.08 30.3174 128.153 29.971 128.299 29.6748C128.444 29.374 128.65 29.1416 128.914 28.9775C129.178 28.8135 129.486 28.7314 129.837 28.7314C130.188 28.7314 130.493 28.8135 130.753 28.9775C131.017 29.1416 131.222 29.374 131.368 29.6748C131.514 29.971 131.587 30.3174 131.587 30.7139C131.587 30.7367 131.587 30.7572 131.587 30.7754C131.587 30.7936 131.587 30.8118 131.587 30.8301H128.08ZM134.277 35H135.521V30.5566C135.521 30.2285 135.592 29.9346 135.733 29.6748C135.875 29.415 136.084 29.2077 136.362 29.0527C136.645 28.8978 136.996 28.8203 137.415 28.8203C137.529 28.8203 137.638 28.8249 137.743 28.834C137.853 28.8385 137.937 28.8477 137.996 28.8613V27.7334C137.923 27.7243 137.848 27.7174 137.771 27.7129C137.698 27.7038 137.622 27.6992 137.545 27.6992C137.126 27.6992 136.782 27.7699 136.513 27.9111C136.244 28.0479 136.036 28.2096 135.891 28.3965C135.745 28.5833 135.64 28.7565 135.576 28.916H135.515V27.8086H134.277V35ZM141.074 31.9785C141.074 32.6211 141.194 33.1771 141.436 33.6465C141.682 34.1159 142.028 34.4782 142.475 34.7334C142.926 34.9886 143.459 35.1162 144.075 35.1162C144.708 35.1162 145.228 35.016 145.633 34.8154C146.043 34.6104 146.351 34.346 146.556 34.0225C146.761 33.6943 146.871 33.3548 146.884 33.0039H145.681C145.64 33.1862 145.563 33.3571 145.449 33.5166C145.335 33.6715 145.168 33.7969 144.95 33.8926C144.735 33.9883 144.451 34.0361 144.095 34.0361C143.539 34.0361 143.102 33.8516 142.783 33.4824C142.468 33.1087 142.311 32.612 142.311 31.9922V30.8438C142.311 30.2103 142.461 29.7067 142.762 29.333C143.067 28.9593 143.512 28.7725 144.095 28.7725C144.469 28.7725 144.763 28.8363 144.977 28.9639C145.191 29.0869 145.346 29.2373 145.442 29.415C145.542 29.5882 145.606 29.7454 145.633 29.8867H146.836C146.827 29.5267 146.718 29.1803 146.508 28.8477C146.299 28.5104 145.991 28.2347 145.585 28.0205C145.18 27.8018 144.676 27.6924 144.075 27.6924C143.459 27.6924 142.926 27.82 142.475 28.0752C142.028 28.3304 141.682 28.6927 141.436 29.1621C141.194 29.627 141.074 30.1738 141.074 30.8027V31.9785ZM150.088 35.1162C150.443 35.1162 150.753 35.0684 151.017 34.9727C151.282 34.8724 151.505 34.7402 151.687 34.5762C151.874 34.4121 152.027 34.2344 152.145 34.043H152.2V35H153.389V30.0918C153.389 29.5039 153.266 29.0345 153.02 28.6836C152.774 28.3327 152.446 28.0798 152.036 27.9248C151.63 27.7699 151.179 27.6924 150.682 27.6924C150.281 27.6924 149.921 27.7357 149.602 27.8223C149.283 27.9043 149.01 28.0273 148.782 28.1914C148.554 28.3509 148.374 28.5492 148.242 28.7861C148.114 29.0186 148.037 29.2874 148.009 29.5928H149.206C149.256 29.4242 149.333 29.276 149.438 29.1484C149.547 29.0208 149.698 28.9206 149.889 28.8477C150.085 28.7747 150.336 28.7383 150.641 28.7383C151.101 28.7383 151.466 28.8477 151.735 29.0664C152.008 29.2852 152.145 29.6247 152.145 30.085V30.7959H150.265C149.44 30.7959 148.811 30.9919 148.379 31.3838C147.95 31.7712 147.736 32.2793 147.736 32.9082C147.736 33.5736 147.952 34.109 148.385 34.5146C148.823 34.9157 149.39 35.1162 150.088 35.1162ZM150.429 34.0771C150.056 34.0771 149.723 33.9792 149.431 33.7832C149.144 33.5872 149.001 33.2819 149.001 32.8672C149.001 32.5436 149.105 32.2747 149.315 32.0605C149.529 31.8464 149.88 31.7393 150.368 31.7393H152.145V32.5391C152.145 32.8353 152.068 33.0996 151.913 33.332C151.762 33.5599 151.56 33.7422 151.304 33.8789C151.049 34.0111 150.757 34.0771 150.429 34.0771ZM155.089 35H156.326V30.9941C156.326 30.5794 156.394 30.2035 156.531 29.8662C156.668 29.529 156.875 29.2624 157.153 29.0664C157.436 28.8704 157.787 28.7725 158.206 28.7725C158.529 28.7725 158.807 28.8363 159.04 28.9639C159.272 29.0915 159.45 29.2829 159.573 29.5381C159.701 29.7887 159.764 30.1032 159.764 30.4814V35H161.002V30.0918C161.002 29.2852 160.776 28.6836 160.325 28.2871C159.874 27.8906 159.286 27.6924 158.561 27.6924C158.06 27.6924 157.661 27.7721 157.365 27.9316C157.069 28.0911 156.846 28.2803 156.695 28.499C156.545 28.7178 156.44 28.9229 156.381 29.1143H156.312V27.8086H155.089V35ZM164.824 31.9785C164.824 32.6211 164.945 33.1771 165.187 33.6465C165.433 34.1159 165.779 34.4782 166.226 34.7334C166.677 34.9886 167.21 35.1162 167.825 35.1162C168.459 35.1162 168.978 35.016 169.384 34.8154C169.794 34.6104 170.102 34.346 170.307 34.0225C170.512 33.6943 170.621 33.3548 170.635 33.0039H169.432C169.391 33.1862 169.313 33.3571 169.199 33.5166C169.085 33.6715 168.919 33.7969 168.7 33.8926C168.486 33.9883 168.201 34.0361 167.846 34.0361C167.29 34.0361 166.852 33.8516 166.533 33.4824C166.219 33.1087 166.062 32.612 166.062 31.9922V30.8438C166.062 30.2103 166.212 29.7067 166.513 29.333C166.818 28.9593 167.263 28.7725 167.846 28.7725C168.22 28.7725 168.514 28.8363 168.728 28.9639C168.942 29.0869 169.097 29.2373 169.193 29.415C169.293 29.5882 169.357 29.7454 169.384 29.8867H170.587C170.578 29.5267 170.469 29.1803 170.259 28.8477C170.049 28.5104 169.742 28.2347 169.336 28.0205C168.931 27.8018 168.427 27.6924 167.825 27.6924C167.21 27.6924 166.677 27.82 166.226 28.0752C165.779 28.3304 165.433 28.6927 165.187 29.1621C164.945 29.627 164.824 30.1738 164.824 30.8027V31.9785ZM171.917 35H173.155V30.9941C173.155 30.5794 173.225 30.2035 173.367 29.8662C173.508 29.529 173.718 29.2624 173.996 29.0664C174.274 28.8704 174.618 28.7725 175.028 28.7725C175.351 28.7725 175.632 28.8363 175.869 28.9639C176.11 29.0915 176.295 29.2852 176.422 29.5449C176.554 29.8001 176.621 30.1169 176.621 30.4951V35H177.858V30.1055C177.858 29.2988 177.628 28.695 177.167 28.2939C176.712 27.8929 176.135 27.6924 175.438 27.6924C174.941 27.6924 174.538 27.7767 174.228 27.9453C173.918 28.1094 173.683 28.3053 173.524 28.5332C173.369 28.7565 173.266 28.9502 173.216 29.1143H173.155V25.1768H171.917V35ZM181.492 35.1162C181.847 35.1162 182.157 35.0684 182.421 34.9727C182.686 34.8724 182.909 34.7402 183.091 34.5762C183.278 34.4121 183.431 34.2344 183.549 34.043H183.604V35H184.794V30.0918C184.794 29.5039 184.671 29.0345 184.424 28.6836C184.178 28.3327 183.85 28.0798 183.44 27.9248C183.034 27.7699 182.583 27.6924 182.087 27.6924C181.685 27.6924 181.325 27.7357 181.006 27.8223C180.687 27.9043 180.414 28.0273 180.186 28.1914C179.958 28.3509 179.778 28.5492 179.646 28.7861C179.518 29.0186 179.441 29.2874 179.414 29.5928H180.61C180.66 29.4242 180.738 29.276 180.842 29.1484C180.952 29.0208 181.102 28.9206 181.294 28.8477C181.49 28.7747 181.74 28.7383 182.046 28.7383C182.506 28.7383 182.87 28.8477 183.139 29.0664C183.413 29.2852 183.549 29.6247 183.549 30.085V30.7959H181.67C180.845 30.7959 180.216 30.9919 179.783 31.3838C179.354 31.7712 179.14 32.2793 179.14 32.9082C179.14 33.5736 179.357 34.109 179.79 34.5146C180.227 34.9157 180.795 35.1162 181.492 35.1162ZM181.834 34.0771C181.46 34.0771 181.127 33.9792 180.836 33.7832C180.548 33.5872 180.405 33.2819 180.405 32.8672C180.405 32.5436 180.51 32.2747 180.719 32.0605C180.934 31.8464 181.284 31.7393 181.772 31.7393H183.549V32.5391C183.549 32.8353 183.472 33.0996 183.317 33.332C183.167 33.5599 182.964 33.7422 182.709 33.8789C182.453 34.0111 182.162 34.0771 181.834 34.0771ZM186.493 35H187.73V30.9941C187.73 30.5794 187.799 30.2035 187.935 29.8662C188.072 29.529 188.279 29.2624 188.557 29.0664C188.84 28.8704 189.191 28.7725 189.61 28.7725C189.934 28.7725 190.212 28.8363 190.444 28.9639C190.677 29.0915 190.854 29.2829 190.977 29.5381C191.105 29.7887 191.169 30.1032 191.169 30.4814V35H192.406V30.0918C192.406 29.2852 192.18 28.6836 191.729 28.2871C191.278 27.8906 190.69 27.6924 189.966 27.6924C189.464 27.6924 189.066 27.7721 188.769 27.9316C188.473 28.0911 188.25 28.2803 188.099 28.499C187.949 28.7178 187.844 28.9229 187.785 29.1143H187.717V27.8086H186.493V35ZM196.703 36.5928C196.389 36.5928 196.115 36.5495 195.883 36.4629C195.655 36.3809 195.473 36.2692 195.336 36.1279C195.199 35.9867 195.115 35.8317 195.083 35.6631H193.825C193.857 36.0094 193.98 36.3307 194.194 36.627C194.409 36.9277 194.718 37.1693 195.124 37.3516C195.534 37.5384 196.047 37.6318 196.662 37.6318C197.122 37.6318 197.544 37.5771 197.927 37.4678C198.314 37.3584 198.649 37.1875 198.932 36.9551C199.214 36.7227 199.433 36.4264 199.588 36.0664C199.747 35.7064 199.827 35.278 199.827 34.7812V27.8086H198.645V28.8955H198.583C198.506 28.695 198.371 28.5036 198.18 28.3213C197.988 28.139 197.749 27.9909 197.462 27.877C197.179 27.7585 196.858 27.6992 196.498 27.6992C195.969 27.6992 195.491 27.82 195.062 28.0615C194.634 28.3031 194.295 28.6517 194.044 29.1074C193.793 29.5586 193.668 30.1009 193.668 30.7344V31.8486C193.668 32.4775 193.793 33.0199 194.044 33.4756C194.295 33.9268 194.634 34.2731 195.062 34.5146C195.495 34.7516 195.976 34.8701 196.505 34.8701C196.756 34.8701 196.988 34.8405 197.202 34.7812C197.416 34.722 197.61 34.6423 197.783 34.542C197.956 34.4372 198.104 34.3187 198.228 34.1865C198.355 34.0498 198.453 33.9017 198.521 33.7422H198.59V34.7881C198.59 35.3532 198.433 35.7952 198.118 36.1143C197.808 36.4333 197.337 36.5928 196.703 36.5928ZM196.806 28.7588C197.184 28.7588 197.505 28.8545 197.77 29.0459C198.034 29.2327 198.237 29.4788 198.378 29.7842C198.519 30.0895 198.59 30.4176 198.59 30.7686V31.8555C198.59 32.1927 198.521 32.5117 198.385 32.8125C198.253 33.1133 198.054 33.3594 197.79 33.5508C197.53 33.7376 197.207 33.8311 196.819 33.8311C196.45 33.8311 196.12 33.7399 195.828 33.5576C195.541 33.3708 195.315 33.1133 195.151 32.7852C194.992 32.4525 194.912 32.0697 194.912 31.6367V30.96C194.912 30.5225 194.99 30.1396 195.145 29.8115C195.299 29.4788 195.518 29.2214 195.801 29.0391C196.083 28.8522 196.418 28.7588 196.806 28.7588ZM204.281 35.1162C204.737 35.1162 205.134 35.0547 205.471 34.9316C205.808 34.8086 206.091 34.6514 206.319 34.46C206.546 34.264 206.722 34.0566 206.845 33.8379C206.973 33.6191 207.05 33.4141 207.077 33.2227H205.806C205.765 33.3685 205.676 33.5075 205.539 33.6396C205.407 33.7673 205.232 33.8721 205.013 33.9541C204.799 34.0316 204.553 34.0703 204.275 34.0703C203.678 34.0703 203.222 33.8789 202.907 33.4961C202.593 33.1133 202.436 32.6439 202.436 32.0879V31.7256H207.173V30.8574C207.173 30.2148 207.045 29.6566 206.79 29.1826C206.535 28.7087 206.182 28.3418 205.731 28.082C205.284 27.8223 204.769 27.6924 204.186 27.6924C203.616 27.6924 203.106 27.8223 202.654 28.082C202.203 28.3372 201.848 28.7018 201.588 29.1758C201.333 29.6452 201.205 30.2057 201.205 30.8574V31.9512C201.205 32.5983 201.326 33.1589 201.568 33.6328C201.814 34.1068 202.167 34.4736 202.627 34.7334C203.087 34.9886 203.639 35.1162 204.281 35.1162ZM202.436 30.8301C202.436 30.8118 202.436 30.7936 202.436 30.7754C202.436 30.7572 202.436 30.7367 202.436 30.7139C202.436 30.3174 202.509 29.971 202.654 29.6748C202.8 29.374 203.005 29.1416 203.27 28.9775C203.534 28.8135 203.842 28.7314 204.193 28.7314C204.543 28.7314 204.849 28.8135 205.109 28.9775C205.373 29.1416 205.578 29.374 205.724 29.6748C205.87 29.971 205.943 30.3174 205.943 30.7139C205.943 30.7367 205.943 30.7572 205.943 30.7754C205.943 30.7936 205.943 30.8118 205.943 30.8301H202.436ZM211.399 27.8291H210.292V28.834H211.392V32.9834C211.392 33.4574 211.447 33.8493 211.556 34.1592C211.666 34.4645 211.868 34.6924 212.165 34.8428C212.465 34.9886 212.901 35.0615 213.47 35.0615C213.607 35.0615 213.776 35.0547 213.976 35.041C214.177 35.0273 214.302 35.0137 214.352 35V34.0088C214.297 34.0133 214.211 34.0202 214.092 34.0293C213.974 34.0384 213.871 34.043 213.785 34.043C213.347 34.043 213.044 33.9723 212.876 33.8311C212.707 33.6852 212.623 33.4004 212.623 32.9766V28.834H214.25V27.8291H212.623V26.0244H211.399V27.8291ZM215.594 35H216.831V30.9941C216.831 30.5794 216.901 30.2035 217.043 29.8662C217.184 29.529 217.394 29.2624 217.672 29.0664C217.95 28.8704 218.294 28.7725 218.704 28.7725C219.027 28.7725 219.308 28.8363 219.545 28.9639C219.786 29.0915 219.971 29.2852 220.098 29.5449C220.231 29.8001 220.297 30.1169 220.297 30.4951V35H221.534V30.1055C221.534 29.2988 221.304 28.695 220.844 28.2939C220.388 27.8929 219.811 27.6924 219.114 27.6924C218.617 27.6924 218.214 27.7767 217.904 27.9453C217.594 28.1094 217.36 28.3053 217.2 28.5332C217.045 28.7565 216.943 28.9502 216.892 29.1143H216.831V25.1768H215.594V35ZM225.954 35.1162C226.41 35.1162 226.806 35.0547 227.144 34.9316C227.481 34.8086 227.763 34.6514 227.991 34.46C228.219 34.264 228.395 34.0566 228.518 33.8379C228.645 33.6191 228.723 33.4141 228.75 33.2227H227.479C227.438 33.3685 227.349 33.5075 227.212 33.6396C227.08 33.7673 226.904 33.8721 226.686 33.9541C226.471 34.0316 226.225 34.0703 225.947 34.0703C225.35 34.0703 224.895 33.8789 224.58 33.4961C224.266 33.1133 224.108 32.6439 224.108 32.0879V31.7256H228.846V30.8574C228.846 30.2148 228.718 29.6566 228.463 29.1826C228.208 28.7087 227.854 28.3418 227.403 28.082C226.957 27.8223 226.442 27.6924 225.858 27.6924C225.289 27.6924 224.778 27.8223 224.327 28.082C223.876 28.3372 223.521 28.7018 223.261 29.1758C223.006 29.6452 222.878 30.2057 222.878 30.8574V31.9512C222.878 32.5983 222.999 33.1589 223.24 33.6328C223.486 34.1068 223.84 34.4736 224.3 34.7334C224.76 34.9886 225.312 35.1162 225.954 35.1162ZM224.108 30.8301C224.108 30.8118 224.108 30.7936 224.108 30.7754C224.108 30.7572 224.108 30.7367 224.108 30.7139C224.108 30.3174 224.181 29.971 224.327 29.6748C224.473 29.374 224.678 29.1416 224.942 28.9775C225.207 28.8135 225.514 28.7314 225.865 28.7314C226.216 28.7314 226.521 28.8135 226.781 28.9775C227.046 29.1416 227.251 29.374 227.396 29.6748C227.542 29.971 227.615 30.3174 227.615 30.7139C227.615 30.7367 227.615 30.7572 227.615 30.7754C227.615 30.7936 227.615 30.8118 227.615 30.8301H224.108ZM232.327 29.873C232.327 30.3424 232.436 30.7048 232.655 30.96C232.873 31.2152 233.165 31.4089 233.53 31.541C233.899 31.6686 234.307 31.778 234.753 31.8691C235.086 31.9329 235.389 32.0036 235.663 32.0811C235.936 32.154 236.152 32.2611 236.312 32.4023C236.471 32.5436 236.551 32.7487 236.551 33.0176C236.551 33.2272 236.496 33.4163 236.387 33.585C236.278 33.7536 236.105 33.8903 235.868 33.9951C235.635 34.0999 235.33 34.1523 234.952 34.1523C234.619 34.1523 234.343 34.1113 234.124 34.0293C233.906 33.9427 233.739 33.8219 233.625 33.667C233.511 33.512 233.439 33.3275 233.407 33.1133H232.197C232.197 33.5417 232.311 33.9062 232.538 34.207C232.766 34.5033 233.083 34.7288 233.489 34.8838C233.894 35.0387 234.364 35.1162 234.897 35.1162C235.471 35.1162 235.972 35.0296 236.401 34.8564C236.834 34.6833 237.169 34.4303 237.406 34.0977C237.647 33.7604 237.768 33.3525 237.768 32.874C237.768 32.4046 237.656 32.04 237.433 31.7803C237.21 31.516 236.911 31.3177 236.538 31.1855C236.168 31.0488 235.758 30.9417 235.307 30.8643C235.107 30.8278 234.901 30.7891 234.692 30.748C234.482 30.707 234.288 30.6501 234.111 30.5771C233.938 30.4997 233.796 30.3971 233.687 30.2695C233.578 30.1374 233.523 29.9642 233.523 29.75C233.523 29.3991 233.657 29.1302 233.926 28.9434C234.2 28.7565 234.546 28.6631 234.965 28.6631C235.289 28.6631 235.555 28.7155 235.765 28.8203C235.979 28.9206 236.141 29.0505 236.25 29.21C236.36 29.3695 236.421 29.5335 236.435 29.7021H237.583C237.583 29.2965 237.476 28.9456 237.262 28.6494C237.048 28.3486 236.747 28.1139 236.36 27.9453C235.977 27.7767 235.526 27.6924 235.006 27.6924C234.541 27.6924 234.104 27.7676 233.694 27.918C233.288 28.0684 232.958 28.3053 232.703 28.6289C232.452 28.9479 232.327 29.3626 232.327 29.873ZM239.481 27.8291H238.374V28.834H239.474V32.9834C239.474 33.4574 239.529 33.8493 239.638 34.1592C239.748 34.4645 239.95 34.6924 240.247 34.8428C240.547 34.9886 240.983 35.0615 241.552 35.0615C241.689 35.0615 241.858 35.0547 242.058 35.041C242.259 35.0273 242.384 35.0137 242.434 35V34.0088C242.379 34.0133 242.293 34.0202 242.174 34.0293C242.056 34.0384 241.953 34.043 241.867 34.043C241.429 34.043 241.126 33.9723 240.958 33.8311C240.789 33.6852 240.705 33.4004 240.705 32.9766V28.834H242.332V27.8291H240.705V26.0244H239.481V27.8291ZM245.596 35.1162C245.952 35.1162 246.262 35.0684 246.526 34.9727C246.79 34.8724 247.014 34.7402 247.196 34.5762C247.383 34.4121 247.536 34.2344 247.654 34.043H247.709V35H248.898V30.0918C248.898 29.5039 248.775 29.0345 248.529 28.6836C248.283 28.3327 247.955 28.0798 247.545 27.9248C247.139 27.7699 246.688 27.6924 246.191 27.6924C245.79 27.6924 245.43 27.7357 245.111 27.8223C244.792 27.9043 244.519 28.0273 244.291 28.1914C244.063 28.3509 243.883 28.5492 243.751 28.7861C243.623 29.0186 243.546 29.2874 243.518 29.5928H244.715C244.765 29.4242 244.842 29.276 244.947 29.1484C245.056 29.0208 245.207 28.9206 245.398 28.8477C245.594 28.7747 245.845 28.7383 246.15 28.7383C246.61 28.7383 246.975 28.8477 247.244 29.0664C247.517 29.2852 247.654 29.6247 247.654 30.085V30.7959H245.774C244.949 30.7959 244.32 30.9919 243.887 31.3838C243.459 31.7712 243.245 32.2793 243.245 32.9082C243.245 33.5736 243.461 34.109 243.894 34.5146C244.332 34.9157 244.899 35.1162 245.596 35.1162ZM245.938 34.0771C245.565 34.0771 245.232 33.9792 244.94 33.7832C244.653 33.5872 244.51 33.2819 244.51 32.8672C244.51 32.5436 244.614 32.2747 244.824 32.0605C245.038 31.8464 245.389 31.7393 245.877 31.7393H247.654V32.5391C247.654 32.8353 247.577 33.0996 247.422 33.332C247.271 33.5599 247.068 33.7422 246.813 33.8789C246.558 34.0111 246.266 34.0771 245.938 34.0771ZM250.987 27.8291H249.88V28.834H250.98V32.9834C250.98 33.4574 251.035 33.8493 251.145 34.1592C251.254 34.4645 251.457 34.6924 251.753 34.8428C252.054 34.9886 252.489 35.0615 253.059 35.0615C253.195 35.0615 253.364 35.0547 253.564 35.041C253.765 35.0273 253.89 35.0137 253.94 35V34.0088C253.886 34.0133 253.799 34.0202 253.681 34.0293C253.562 34.0384 253.46 34.043 253.373 34.043C252.936 34.043 252.632 33.9723 252.464 33.8311C252.295 33.6852 252.211 33.4004 252.211 32.9766V28.834H253.838V27.8291H252.211V26.0244H250.987V27.8291ZM257.889 35.1162C258.345 35.1162 258.741 35.0547 259.078 34.9316C259.416 34.8086 259.698 34.6514 259.926 34.46C260.154 34.264 260.329 34.0566 260.452 33.8379C260.58 33.6191 260.657 33.4141 260.685 33.2227H259.413C259.372 33.3685 259.283 33.5075 259.147 33.6396C259.015 33.7673 258.839 33.8721 258.62 33.9541C258.406 34.0316 258.16 34.0703 257.882 34.0703C257.285 34.0703 256.829 33.8789 256.515 33.4961C256.2 33.1133 256.043 32.6439 256.043 32.0879V31.7256H260.78V30.8574C260.78 30.2148 260.653 29.6566 260.398 29.1826C260.142 28.7087 259.789 28.3418 259.338 28.082C258.891 27.8223 258.377 27.6924 257.793 27.6924C257.224 27.6924 256.713 27.8223 256.262 28.082C255.811 28.3372 255.455 28.7018 255.196 29.1758C254.94 29.6452 254.813 30.2057 254.813 30.8574V31.9512C254.813 32.5983 254.933 33.1589 255.175 33.6328C255.421 34.1068 255.774 34.4736 256.235 34.7334C256.695 34.9886 257.246 35.1162 257.889 35.1162ZM256.043 30.8301C256.043 30.8118 256.043 30.7936 256.043 30.7754C256.043 30.7572 256.043 30.7367 256.043 30.7139C256.043 30.3174 256.116 29.971 256.262 29.6748C256.408 29.374 256.613 29.1416 256.877 28.9775C257.141 28.8135 257.449 28.7314 257.8 28.7314C258.151 28.7314 258.456 28.8135 258.716 28.9775C258.98 29.1416 259.185 29.374 259.331 29.6748C259.477 29.971 259.55 30.3174 259.55 30.7139C259.55 30.7367 259.55 30.7572 259.55 30.7754C259.55 30.7936 259.55 30.8118 259.55 30.8301H256.043ZM261.974 34.1592C261.974 34.4326 262.07 34.6628 262.261 34.8496C262.453 35.0319 262.683 35.123 262.952 35.123C263.234 35.123 263.471 35.0319 263.663 34.8496C263.854 34.6628 263.95 34.4326 263.95 34.1592C263.95 33.8721 263.854 33.6351 263.663 33.4482C263.471 33.2614 263.234 33.168 262.952 33.168C262.683 33.168 262.453 33.2614 262.261 33.4482C262.07 33.6305 261.974 33.8675 261.974 34.1592ZM265.376 34.1592C265.376 34.4326 265.471 34.6628 265.663 34.8496C265.854 35.0319 266.084 35.123 266.353 35.123C266.636 35.123 266.873 35.0319 267.064 34.8496C267.255 34.6628 267.351 34.4326 267.351 34.1592C267.351 33.8721 267.255 33.6351 267.064 33.4482C266.873 33.2614 266.636 33.168 266.353 33.168C266.084 33.168 265.854 33.2614 265.663 33.4482C265.471 33.6305 265.376 33.8675 265.376 34.1592Z" fill="white"/>
<rect width="56" height="51" transform="translate(0 13)" fill="#878787"/>
<circle cx="28.5" cy="38.5" r="19.5" fill="white"/>
<path d="M35.6978 37.6597C36.3082 38.0536 36.3082 38.9464 35.6978 39.3403L25.7922 45.7321C25.1268 46.1615 24.25 45.6838 24.25 44.8919L24.25 32.1082C24.25 31.3162 25.1268 30.8385 25.7922 31.2679L35.6978 37.6597Z" fill="#878787"/>
<path d="M74.8691 46.8633C74.8691 46.2227 74.9414 45.6719 75.0859 45.2109C75.2344 44.7461 75.4414 44.3906 75.707 44.1445C75.9766 43.8945 76.293 43.7695 76.6562 43.7695C77.0273 43.7695 77.3457 43.8945 77.6113 44.1445C77.877 44.3906 78.082 44.7461 78.2266 45.2109C78.3711 45.6719 78.4434 46.2227 78.4434 46.8633V47.1445C78.4434 47.7852 78.3711 48.3359 78.2266 48.7969C78.082 49.2578 77.877 49.6133 77.6113 49.8633C77.3457 50.1094 77.0273 50.2324 76.6562 50.2324C76.293 50.2324 75.9766 50.1094 75.707 49.8633C75.4414 49.6133 75.2344 49.2578 75.0859 48.7969C74.9414 48.3359 74.8691 47.7852 74.8691 47.1445V46.8633ZM73.7969 47.1562C73.7969 47.9648 73.9082 48.6699 74.1309 49.2715C74.3574 49.8691 74.6836 50.334 75.1094 50.666C75.5391 50.998 76.0547 51.1641 76.6562 51.1641C77.1094 51.1641 77.5137 51.0703 77.8691 50.8828C78.2246 50.6953 78.5234 50.4258 78.7656 50.0742C79.0117 49.7188 79.1973 49.2949 79.3223 48.8027C79.4512 48.3105 79.5156 47.7617 79.5156 47.1562V46.8574C79.5156 46.0449 79.4043 45.3398 79.1816 44.7422C78.959 44.1406 78.6348 43.6738 78.209 43.3418C77.7871 43.0059 77.2734 42.8379 76.668 42.8379C76.0625 42.8379 75.5449 43.0059 75.1152 43.3418C74.6895 43.6738 74.3633 44.1426 74.1367 44.748C73.9102 45.3496 73.7969 46.0527 73.7969 46.8574V47.1562ZM81.5816 46.8633C81.5816 46.2227 81.6539 45.6719 81.7984 45.2109C81.9469 44.7461 82.1539 44.3906 82.4195 44.1445C82.6891 43.8945 83.0055 43.7695 83.3688 43.7695C83.7398 43.7695 84.0582 43.8945 84.3238 44.1445C84.5895 44.3906 84.7945 44.7461 84.9391 45.2109C85.0836 45.6719 85.1559 46.2227 85.1559 46.8633V47.1445C85.1559 47.7852 85.0836 48.3359 84.9391 48.7969C84.7945 49.2578 84.5895 49.6133 84.3238 49.8633C84.0582 50.1094 83.7398 50.2324 83.3688 50.2324C83.0055 50.2324 82.6891 50.1094 82.4195 49.8633C82.1539 49.6133 81.9469 49.2578 81.7984 48.7969C81.6539 48.3359 81.5816 47.7852 81.5816 47.1445V46.8633ZM80.5094 47.1562C80.5094 47.9648 80.6207 48.6699 80.8434 49.2715C81.0699 49.8691 81.3961 50.334 81.8219 50.666C82.2516 50.998 82.7672 51.1641 83.3688 51.1641C83.8219 51.1641 84.2262 51.0703 84.5816 50.8828C84.9371 50.6953 85.2359 50.4258 85.4781 50.0742C85.7242 49.7188 85.9098 49.2949 86.0348 48.8027C86.1637 48.3105 86.2281 47.7617 86.2281 47.1562V46.8574C86.2281 46.0449 86.1168 45.3398 85.8941 44.7422C85.6715 44.1406 85.3473 43.6738 84.9215 43.3418C84.4996 43.0059 83.9859 42.8379 83.3805 42.8379C82.775 42.8379 82.2574 43.0059 81.8277 43.3418C81.402 43.6738 81.0758 44.1426 80.8492 44.748C80.6227 45.3496 80.5094 46.0527 80.5094 46.8574V47.1562ZM87.3508 49.0605C87.3508 49.2988 87.4328 49.4961 87.5969 49.6523C87.7609 49.8086 87.9582 49.8867 88.1887 49.8867C88.4309 49.8867 88.634 49.8086 88.798 49.6523C88.966 49.4961 89.05 49.2988 89.05 49.0605C89.05 48.8145 88.966 48.6113 88.798 48.4512C88.634 48.291 88.4309 48.2109 88.1887 48.2109C87.9582 48.2109 87.7609 48.291 87.5969 48.4512C87.4328 48.6113 87.3508 48.8145 87.3508 49.0605ZM87.3508 45.0762C87.3508 45.3105 87.4328 45.5078 87.5969 45.668C87.7609 45.8242 87.9582 45.9023 88.1887 45.9023C88.4309 45.9023 88.634 45.8242 88.798 45.668C88.966 45.5078 89.05 45.3105 89.05 45.0762C89.05 44.8301 88.966 44.627 88.798 44.4668C88.634 44.3066 88.4309 44.2266 88.1887 44.2266C87.9582 44.2266 87.7609 44.3066 87.5969 44.4668C87.4328 44.623 87.3508 44.8262 87.3508 45.0762ZM91.948 47.3379H92.8211C93.1492 47.3379 93.4363 47.3984 93.6824 47.5195C93.9324 47.6367 94.1277 47.8027 94.2684 48.0176C94.4129 48.2324 94.4871 48.4844 94.491 48.7734C94.4949 49.0586 94.4266 49.3145 94.2859 49.541C94.1453 49.7637 93.9441 49.9395 93.6824 50.0684C93.4246 50.1934 93.1199 50.2559 92.7684 50.2559C92.4598 50.252 92.1844 50.2012 91.9422 50.1035C91.7039 50.002 91.5125 49.8672 91.368 49.6992C91.2234 49.5273 91.1375 49.3359 91.1102 49.125H90.1023C90.1219 49.5039 90.2391 49.8496 90.4539 50.1621C90.6727 50.4707 90.9754 50.7168 91.3621 50.9004C91.7527 51.0801 92.2137 51.1699 92.7449 51.1699C93.159 51.1699 93.5398 51.1133 93.8875 51C94.2352 50.8828 94.5359 50.7168 94.7898 50.502C95.0477 50.2871 95.2449 50.0332 95.3816 49.7402C95.5223 49.4473 95.5887 49.127 95.5809 48.7793C95.573 48.3496 95.4695 47.998 95.2703 47.7246C95.075 47.4473 94.8426 47.2383 94.573 47.0977C94.3074 46.957 94.0613 46.875 93.8348 46.8516V46.793C94.0379 46.7578 94.2566 46.6621 94.491 46.5059C94.7254 46.3457 94.9227 46.1289 95.0828 45.8555C95.2469 45.582 95.323 45.2578 95.3113 44.8828C95.3035 44.4922 95.1941 44.1426 94.9832 43.834C94.7723 43.5254 94.4793 43.2812 94.1043 43.1016C93.7293 42.9219 93.2879 42.834 92.7801 42.8379C92.3777 42.8418 92.0242 42.9004 91.7195 43.0137C91.4148 43.127 91.157 43.2793 90.9461 43.4707C90.7391 43.6582 90.5809 43.873 90.4715 44.1152C90.3621 44.3535 90.3035 44.6016 90.2957 44.8594H91.3211C91.3328 44.7109 91.3738 44.5703 91.4441 44.4375C91.5184 44.3047 91.6199 44.1875 91.7488 44.0859C91.8777 43.9805 92.0262 43.8984 92.1941 43.8398C92.366 43.7773 92.5594 43.7461 92.7742 43.7461C93.2039 43.7461 93.5535 43.8672 93.823 44.1094C94.0926 44.3516 94.2273 44.666 94.2273 45.0527C94.2313 45.3145 94.1707 45.5488 94.0457 45.7559C93.9207 45.9629 93.7469 46.125 93.5242 46.2422C93.3055 46.3594 93.0555 46.418 92.7742 46.418H91.948V47.3379ZM97.6059 46.8633C97.6059 46.2227 97.6781 45.6719 97.8227 45.2109C97.9711 44.7461 98.1781 44.3906 98.4438 44.1445C98.7133 43.8945 99.0297 43.7695 99.393 43.7695C99.7641 43.7695 100.082 43.8945 100.348 44.1445C100.614 44.3906 100.819 44.7461 100.963 45.2109C101.108 45.6719 101.18 46.2227 101.18 46.8633V47.1445C101.18 47.7852 101.108 48.3359 100.963 48.7969C100.819 49.2578 100.614 49.6133 100.348 49.8633C100.082 50.1094 99.7641 50.2324 99.393 50.2324C99.0297 50.2324 98.7133 50.1094 98.4438 49.8633C98.1781 49.6133 97.9711 49.2578 97.8227 48.7969C97.6781 48.3359 97.6059 47.7852 97.6059 47.1445V46.8633ZM96.5336 47.1562C96.5336 47.9648 96.6449 48.6699 96.8676 49.2715C97.0941 49.8691 97.4203 50.334 97.8461 50.666C98.2758 50.998 98.7914 51.1641 99.393 51.1641C99.8461 51.1641 100.25 51.0703 100.606 50.8828C100.961 50.6953 101.26 50.4258 101.502 50.0742C101.748 49.7188 101.934 49.2949 102.059 48.8027C102.188 48.3105 102.252 47.7617 102.252 47.1562V46.8574C102.252 46.0449 102.141 45.3398 101.918 44.7422C101.696 44.1406 101.371 43.6738 100.946 43.3418C100.524 43.0059 100.01 42.8379 99.4047 42.8379C98.7992 42.8379 98.2816 43.0059 97.852 43.3418C97.4262 43.6738 97.1 44.1426 96.8734 44.748C96.6469 45.3496 96.5336 46.0527 96.5336 46.8574V47.1562Z" fill="white"/>
<rect x="0.5" y="0.5" width="357" height="73" rx="3.5" stroke="#878787"/>
<circle cx="325.5" cy="37.5" r="1.5" fill="white"/>
<circle cx="332.5" cy="37.5" r="1.5" fill="white"/>
<circle cx="339.5" cy="37.5" r="1.5" fill="white"/>
</g>
<defs>
<clipPath id="clip0_32_922">
<rect width="358" height="74" rx="4" fill="white"/>
</clipPath>
</defs>
</svg>
