<svg width="358" height="74" viewBox="0 0 358 74" fill="none" xmlns="http://www.w3.org/2000/svg">
<rect width="246" height="29" transform="translate(63 16)" fill="white"/>
<path d="M77.6963 25.6689H74.292V35H75.543V31.3086H77.7441L79.46 35H80.8887L78.9883 31.0693C79.3346 30.9417 79.6377 30.7549 79.8975 30.5088C80.1572 30.2627 80.36 29.9688 80.5059 29.627C80.6517 29.2806 80.7246 28.8932 80.7246 28.4648C80.7246 27.8997 80.6016 27.4076 80.3555 26.9883C80.1094 26.569 79.7607 26.2454 79.3096 26.0176C78.8584 25.7852 78.3206 25.6689 77.6963 25.6689ZM75.543 30.2285V26.7627H77.5322C78.1247 26.7627 78.5872 26.9176 78.9199 27.2275C79.2572 27.5329 79.4258 27.9681 79.4258 28.5332C79.4258 29.0892 79.2594 29.5107 78.9268 29.7979C78.5941 30.085 78.1133 30.2285 77.4844 30.2285H75.543ZM84.9396 35.1162C85.3954 35.1162 85.7919 35.0547 86.1291 34.9316C86.4663 34.8086 86.7489 34.6514 86.9768 34.46C87.2046 34.264 87.3801 34.0566 87.5031 33.8379C87.6307 33.6191 87.7082 33.4141 87.7355 33.2227H86.4641C86.423 33.3685 86.3342 33.5075 86.1975 33.6396C86.0653 33.7673 85.8898 33.8721 85.6711 33.9541C85.4569 34.0316 85.2108 34.0703 84.9328 34.0703C84.3358 34.0703 83.8801 33.8789 83.5656 33.4961C83.2512 33.1133 83.0939 32.6439 83.0939 32.0879V31.7256H87.8313V30.8574C87.8313 30.2148 87.7036 29.6566 87.4484 29.1826C87.1932 28.7087 86.84 28.3418 86.3889 28.082C85.9423 27.8223 85.4273 27.6924 84.8439 27.6924C84.2743 27.6924 83.7639 27.8223 83.3127 28.082C82.8615 28.3372 82.5061 28.7018 82.2463 29.1758C81.9911 29.6452 81.8635 30.2057 81.8635 30.8574V31.9512C81.8635 32.5983 81.9842 33.1589 82.2258 33.6328C82.4719 34.1068 82.8251 34.4736 83.2854 34.7334C83.7456 34.9886 84.2971 35.1162 84.9396 35.1162ZM83.0939 30.8301C83.0939 30.8118 83.0939 30.7936 83.0939 30.7754C83.0939 30.7572 83.0939 30.7367 83.0939 30.7139C83.0939 30.3174 83.1669 29.971 83.3127 29.6748C83.4585 29.374 83.6636 29.1416 83.9279 28.9775C84.1923 28.8135 84.4999 28.7314 84.8508 28.7314C85.2017 28.7314 85.507 28.8135 85.7668 28.9775C86.0311 29.1416 86.2362 29.374 86.382 29.6748C86.5279 29.971 86.6008 30.3174 86.6008 30.7139C86.6008 30.7367 86.6008 30.7572 86.6008 30.7754C86.6008 30.7936 86.6008 30.8118 86.6008 30.8301H83.0939ZM91.1234 35.1162C91.4789 35.1162 91.7888 35.0684 92.0531 34.9727C92.3174 34.8724 92.5408 34.7402 92.723 34.5762C92.9099 34.4121 93.0626 34.2344 93.1811 34.043H93.2357V35H94.4252V30.0918C94.4252 29.5039 94.3021 29.0345 94.0561 28.6836C93.81 28.3327 93.4818 28.0798 93.0717 27.9248C92.6661 27.7699 92.2149 27.6924 91.7182 27.6924C91.3171 27.6924 90.9571 27.7357 90.6381 27.8223C90.3191 27.9043 90.0456 28.0273 89.8178 28.1914C89.5899 28.3509 89.4099 28.5492 89.2777 28.7861C89.1501 29.0186 89.0727 29.2874 89.0453 29.5928H90.2416C90.2917 29.4242 90.3692 29.276 90.474 29.1484C90.5834 29.0208 90.7338 28.9206 90.9252 28.8477C91.1212 28.7747 91.3718 28.7383 91.6771 28.7383C92.1374 28.7383 92.502 28.8477 92.7709 29.0664C93.0443 29.2852 93.1811 29.6247 93.1811 30.085V30.7959H91.3012C90.4763 30.7959 89.8474 30.9919 89.4145 31.3838C88.9861 31.7712 88.7719 32.2793 88.7719 32.9082C88.7719 33.5736 88.9883 34.109 89.4213 34.5146C89.8588 34.9157 90.4262 35.1162 91.1234 35.1162ZM91.4652 34.0771C91.0915 34.0771 90.7589 33.9792 90.4672 33.7832C90.1801 33.5872 90.0365 33.2819 90.0365 32.8672C90.0365 32.5436 90.1413 32.2747 90.351 32.0605C90.5652 31.8464 90.9161 31.7393 91.4037 31.7393H93.1811V32.5391C93.1811 32.8353 93.1036 33.0996 92.9486 33.332C92.7982 33.5599 92.5954 33.7422 92.3402 33.8789C92.085 34.0111 91.7934 34.0771 91.4652 34.0771ZM95.776 31.9785C95.776 32.6211 95.8967 33.1771 96.1383 33.6465C96.3844 34.1159 96.7307 34.4782 97.1773 34.7334C97.6285 34.9886 98.1617 35.1162 98.777 35.1162C99.4104 35.1162 99.9299 35.016 100.336 34.8154C100.746 34.6104 101.053 34.346 101.258 34.0225C101.463 33.6943 101.573 33.3548 101.587 33.0039H100.383C100.342 33.1862 100.265 33.3571 100.151 33.5166C100.037 33.6715 99.8707 33.7969 99.652 33.8926C99.4378 33.9883 99.1529 34.0361 98.7975 34.0361C98.2415 34.0361 97.804 33.8516 97.485 33.4824C97.1705 33.1087 97.0133 32.612 97.0133 31.9922V30.8438C97.0133 30.2103 97.1637 29.7067 97.4645 29.333C97.7698 28.9593 98.2141 28.7725 98.7975 28.7725C99.1712 28.7725 99.4651 28.8363 99.6793 28.9639C99.8935 29.0869 100.048 29.2373 100.144 29.415C100.244 29.5882 100.308 29.7454 100.336 29.8867H101.539C101.53 29.5267 101.42 29.1803 101.211 28.8477C101.001 28.5104 100.693 28.2347 100.288 28.0205C99.8821 27.8018 99.3785 27.6924 98.777 27.6924C98.1617 27.6924 97.6285 27.82 97.1773 28.0752C96.7307 28.3304 96.3844 28.6927 96.1383 29.1621C95.8967 29.627 95.776 30.1738 95.776 30.8027V31.9785ZM103.238 27.8291H102.131V28.834H103.231V32.9834C103.231 33.4574 103.286 33.8493 103.395 34.1592C103.505 34.4645 103.707 34.6924 104.004 34.8428C104.304 34.9886 104.74 35.0615 105.309 35.0615C105.446 35.0615 105.615 35.0547 105.815 35.041C106.016 35.0273 106.141 35.0137 106.191 35V34.0088C106.137 34.0133 106.05 34.0202 105.931 34.0293C105.813 34.0384 105.71 34.043 105.624 34.043C105.186 34.043 104.883 33.9723 104.715 33.8311C104.546 33.6852 104.462 33.4004 104.462 32.9766V28.834H106.089V27.8291H104.462V26.0244H103.238V27.8291ZM108.034 37.4404L108.984 33.4756H107.535L106.92 37.4404H108.034ZM114.639 35.1162C114.995 35.1162 115.304 35.0684 115.569 34.9727C115.833 34.8724 116.056 34.7402 116.239 34.5762C116.426 34.4121 116.578 34.2344 116.697 34.043H116.751V35H117.941V30.0918C117.941 29.5039 117.818 29.0345 117.572 28.6836C117.326 28.3327 116.997 28.0798 116.587 27.9248C116.182 27.7699 115.731 27.6924 115.234 27.6924C114.833 27.6924 114.473 27.7357 114.154 27.8223C113.835 27.9043 113.561 28.0273 113.333 28.1914C113.106 28.3509 112.926 28.5492 112.793 28.7861C112.666 29.0186 112.588 29.2874 112.561 29.5928H113.757C113.807 29.4242 113.885 29.276 113.99 29.1484C114.099 29.0208 114.249 28.9206 114.441 28.8477C114.637 28.7747 114.887 28.7383 115.193 28.7383C115.653 28.7383 116.018 28.8477 116.287 29.0664C116.56 29.2852 116.697 29.6247 116.697 30.085V30.7959H114.817C113.992 30.7959 113.363 30.9919 112.93 31.3838C112.502 31.7712 112.287 32.2793 112.287 32.9082C112.287 33.5736 112.504 34.109 112.937 34.5146C113.374 34.9157 113.942 35.1162 114.639 35.1162ZM114.981 34.0771C114.607 34.0771 114.274 33.9792 113.983 33.7832C113.696 33.5872 113.552 33.2819 113.552 32.8672C113.552 32.5436 113.657 32.2747 113.867 32.0605C114.081 31.8464 114.432 31.7393 114.919 31.7393H116.697V32.5391C116.697 32.8353 116.619 33.0996 116.464 33.332C116.314 33.5599 116.111 33.7422 115.856 33.8789C115.601 34.0111 115.309 34.0771 114.981 34.0771ZM121.244 32.8057C121.244 33.152 121.305 33.471 121.429 33.7627C121.552 34.0544 121.727 34.3073 121.955 34.5215C122.183 34.7357 122.458 34.8997 122.782 35.0137C123.11 35.1322 123.475 35.1914 123.876 35.1914C124.755 35.1914 125.441 34.9385 125.933 34.4326C126.426 33.9222 126.672 33.1999 126.672 32.2656V25.6689H125.407V32.3682C125.407 32.915 125.277 33.3343 125.017 33.626C124.758 33.9131 124.377 34.0566 123.876 34.0566C123.611 34.0566 123.374 34.0042 123.165 33.8994C122.96 33.79 122.796 33.6419 122.673 33.4551C122.55 33.2682 122.484 33.0518 122.474 32.8057H121.244ZM130.381 35.1162C130.736 35.1162 131.046 35.0684 131.311 34.9727C131.575 34.8724 131.798 34.7402 131.98 34.5762C132.167 34.4121 132.32 34.2344 132.438 34.043H132.493V35H133.683V30.0918C133.683 29.5039 133.56 29.0345 133.313 28.6836C133.067 28.3327 132.739 28.0798 132.329 27.9248C131.924 27.7699 131.472 27.6924 130.976 27.6924C130.575 27.6924 130.215 27.7357 129.896 27.8223C129.576 27.9043 129.303 28.0273 129.075 28.1914C128.847 28.3509 128.667 28.5492 128.535 28.7861C128.408 29.0186 128.33 29.2874 128.303 29.5928H129.499C129.549 29.4242 129.627 29.276 129.731 29.1484C129.841 29.0208 129.991 28.9206 130.183 28.8477C130.379 28.7747 130.629 28.7383 130.935 28.7383C131.395 28.7383 131.759 28.8477 132.028 29.0664C132.302 29.2852 132.438 29.6247 132.438 30.085V30.7959H130.559C129.734 30.7959 129.105 30.9919 128.672 31.3838C128.243 31.7712 128.029 32.2793 128.029 32.9082C128.029 33.5736 128.246 34.109 128.679 34.5146C129.116 34.9157 129.684 35.1162 130.381 35.1162ZM130.723 34.0771C130.349 34.0771 130.016 33.9792 129.725 33.7832C129.438 33.5872 129.294 33.2819 129.294 32.8672C129.294 32.5436 129.399 32.2747 129.608 32.0605C129.823 31.8464 130.174 31.7393 130.661 31.7393H132.438V32.5391C132.438 32.8353 132.361 33.0996 132.206 33.332C132.056 33.5599 131.853 33.7422 131.598 33.8789C131.342 34.0111 131.051 34.0771 130.723 34.0771ZM136.913 35H138.192L140.796 27.8086H139.477L137.57 33.7285H137.522L135.751 27.8086H134.384L136.913 35ZM143.61 35.1162C143.965 35.1162 144.275 35.0684 144.539 34.9727C144.804 34.8724 145.027 34.7402 145.209 34.5762C145.396 34.4121 145.549 34.2344 145.667 34.043H145.722V35H146.912V30.0918C146.912 29.5039 146.788 29.0345 146.542 28.6836C146.296 28.3327 145.968 28.0798 145.558 27.9248C145.152 27.7699 144.701 27.6924 144.204 27.6924C143.803 27.6924 143.443 27.7357 143.124 27.8223C142.805 27.9043 142.532 28.0273 142.304 28.1914C142.076 28.3509 141.896 28.5492 141.764 28.7861C141.636 29.0186 141.559 29.2874 141.532 29.5928H142.728C142.778 29.4242 142.856 29.276 142.96 29.1484C143.07 29.0208 143.22 28.9206 143.412 28.8477C143.607 28.7747 143.858 28.7383 144.163 28.7383C144.624 28.7383 144.988 28.8477 145.257 29.0664C145.531 29.2852 145.667 29.6247 145.667 30.085V30.7959H143.787C142.963 30.7959 142.334 30.9919 141.901 31.3838C141.472 31.7712 141.258 32.2793 141.258 32.9082C141.258 33.5736 141.475 34.109 141.908 34.5146C142.345 34.9157 142.912 35.1162 143.61 35.1162ZM143.952 34.0771C143.578 34.0771 143.245 33.9792 142.954 33.7832C142.666 33.5872 142.523 33.2819 142.523 32.8672C142.523 32.5436 142.628 32.2747 142.837 32.0605C143.051 31.8464 143.402 31.7393 143.89 31.7393H145.667V32.5391C145.667 32.8353 145.59 33.0996 145.435 33.332C145.285 33.5599 145.082 33.7422 144.827 33.8789C144.571 34.0111 144.28 34.0771 143.952 34.0771ZM148.003 32.6348C148.034 33.013 148.135 33.3594 148.303 33.6738C148.476 33.9837 148.709 34.2526 149.001 34.4805C149.292 34.7083 149.639 34.8838 150.04 35.0068C150.441 35.1299 150.887 35.1914 151.379 35.1914C152.1 35.1914 152.719 35.0775 153.239 34.8496C153.763 34.6172 154.166 34.2913 154.449 33.8721C154.736 33.4482 154.879 32.9538 154.879 32.3887C154.879 31.9375 154.791 31.5479 154.613 31.2197C154.435 30.8916 154.166 30.6159 153.806 30.3926C153.446 30.1693 152.993 29.9847 152.446 29.8389L150.853 29.4219C150.429 29.3125 150.103 29.1462 149.876 28.9229C149.652 28.6995 149.541 28.4238 149.541 28.0957C149.541 27.6354 149.721 27.2617 150.081 26.9746C150.441 26.6875 150.915 26.5439 151.503 26.5439C151.867 26.5439 152.188 26.6009 152.466 26.7148C152.744 26.8242 152.972 26.9792 153.15 27.1797C153.328 27.3802 153.444 27.6195 153.499 27.8975H154.763C154.718 27.4235 154.554 27.002 154.271 26.6328C153.993 26.2637 153.619 25.9743 153.15 25.7646C152.681 25.555 152.138 25.4502 151.523 25.4502C150.894 25.4502 150.334 25.5664 149.841 25.7988C149.354 26.0267 148.969 26.3457 148.686 26.7559C148.404 27.1615 148.262 27.6263 148.262 28.1504C148.262 28.5651 148.349 28.9365 148.522 29.2646C148.695 29.5882 148.946 29.8639 149.274 30.0918C149.602 30.3197 150.001 30.4928 150.47 30.6113L152.09 31.0352C152.61 31.1673 152.993 31.3496 153.239 31.582C153.485 31.8099 153.608 32.1107 153.608 32.4844C153.608 32.8125 153.524 33.0973 153.355 33.3389C153.186 33.5804 152.945 33.7673 152.63 33.8994C152.321 34.0316 151.947 34.0977 151.509 34.0977C151.204 34.0977 150.924 34.0635 150.669 33.9951C150.418 33.9222 150.195 33.8219 149.999 33.6943C149.807 33.5667 149.65 33.4141 149.527 33.2363C149.404 33.0586 149.32 32.8581 149.274 32.6348H148.003ZM155.861 31.9785C155.861 32.6211 155.982 33.1771 156.223 33.6465C156.47 34.1159 156.816 34.4782 157.262 34.7334C157.714 34.9886 158.247 35.1162 158.862 35.1162C159.496 35.1162 160.015 35.016 160.421 34.8154C160.831 34.6104 161.138 34.346 161.344 34.0225C161.549 33.6943 161.658 33.3548 161.672 33.0039H160.469C160.428 33.1862 160.35 33.3571 160.236 33.5166C160.122 33.6715 159.956 33.7969 159.737 33.8926C159.523 33.9883 159.238 34.0361 158.883 34.0361C158.327 34.0361 157.889 33.8516 157.57 33.4824C157.256 33.1087 157.098 32.612 157.098 31.9922V30.8438C157.098 30.2103 157.249 29.7067 157.55 29.333C157.855 28.9593 158.299 28.7725 158.883 28.7725C159.256 28.7725 159.55 28.8363 159.764 28.9639C159.979 29.0869 160.134 29.2373 160.229 29.415C160.33 29.5882 160.393 29.7454 160.421 29.8867H161.624C161.615 29.5267 161.505 29.1803 161.296 28.8477C161.086 28.5104 160.778 28.2347 160.373 28.0205C159.967 27.8018 159.464 27.6924 158.862 27.6924C158.247 27.6924 157.714 27.82 157.262 28.0752C156.816 28.3304 156.47 28.6927 156.223 29.1621C155.982 29.627 155.861 30.1738 155.861 30.8027V31.9785ZM163.043 35H164.287V30.5566C164.287 30.2285 164.358 29.9346 164.499 29.6748C164.64 29.415 164.85 29.2077 165.128 29.0527C165.41 28.8978 165.761 28.8203 166.181 28.8203C166.295 28.8203 166.404 28.8249 166.509 28.834C166.618 28.8385 166.702 28.8477 166.762 28.8613V27.7334C166.689 27.7243 166.614 27.7174 166.536 27.7129C166.463 27.7038 166.388 27.6992 166.311 27.6992C165.891 27.6992 165.547 27.7699 165.278 27.9111C165.009 28.0479 164.802 28.2096 164.656 28.3965C164.51 28.5833 164.406 28.7565 164.342 28.916H164.28V27.8086H163.043V35ZM167.887 35H169.124V27.8086H167.887V35ZM167.627 25.5938C167.627 25.8398 167.709 26.0426 167.873 26.2021C168.042 26.3617 168.249 26.4414 168.495 26.4414C168.755 26.4414 168.969 26.3617 169.138 26.2021C169.307 26.0426 169.391 25.8398 169.391 25.5938C169.391 25.3431 169.307 25.138 169.138 24.9785C168.969 24.819 168.755 24.7393 168.495 24.7393C168.249 24.7393 168.042 24.819 167.873 24.9785C167.709 25.138 167.627 25.3431 167.627 25.5938ZM174.406 35.1094C174.975 35.1094 175.47 34.984 175.889 34.7334C176.308 34.4827 176.63 34.1273 176.853 33.667C177.081 33.2067 177.195 32.6576 177.195 32.0195V30.7822C177.195 30.1488 177.083 29.6019 176.86 29.1416C176.636 28.6813 176.32 28.3258 175.91 28.0752C175.499 27.8245 175.012 27.6992 174.447 27.6992C174.187 27.6992 173.943 27.7288 173.715 27.7881C173.487 27.8428 173.278 27.9248 173.086 28.0342C172.899 28.1436 172.738 28.2757 172.601 28.4307C172.469 28.5856 172.366 28.7588 172.293 28.9502H172.232V27.8018H171.042V37.3857H172.28V33.9336H172.341C172.455 34.1842 172.61 34.3984 172.806 34.5762C173.002 34.7493 173.234 34.8815 173.503 34.9727C173.777 35.0638 174.078 35.1094 174.406 35.1094ZM174.153 34.0498C173.784 34.0498 173.458 33.9678 173.175 33.8037C172.893 33.6396 172.672 33.4118 172.512 33.1201C172.357 32.8239 172.28 32.4844 172.28 32.1016V30.8506C172.28 30.4176 172.353 30.0462 172.498 29.7363C172.649 29.4219 172.861 29.1803 173.134 29.0117C173.412 28.8431 173.74 28.7588 174.119 28.7588C174.51 28.7588 174.843 28.8477 175.117 29.0254C175.39 29.2031 175.597 29.4606 175.739 29.7979C175.88 30.1351 175.951 30.5452 175.951 31.0283V31.7939C175.951 32.2725 175.88 32.6803 175.739 33.0176C175.597 33.3503 175.392 33.6055 175.123 33.7832C174.859 33.9609 174.536 34.0498 174.153 34.0498ZM178.983 27.8291H177.876V28.834H178.976V32.9834C178.976 33.4574 179.031 33.8493 179.14 34.1592C179.25 34.4645 179.452 34.6924 179.749 34.8428C180.049 34.9886 180.485 35.0615 181.054 35.0615C181.191 35.0615 181.36 35.0547 181.56 35.041C181.761 35.0273 181.886 35.0137 181.936 35V34.0088C181.881 34.0133 181.795 34.0202 181.676 34.0293C181.558 34.0384 181.455 34.043 181.369 34.043C180.931 34.043 180.628 33.9723 180.46 33.8311C180.291 33.6852 180.207 33.4004 180.207 32.9766V28.834H181.834V27.8291H180.207V26.0244H178.983V27.8291ZM185.67 35H186.907V25.1768H185.67V35ZM188.86 35H190.097V27.8086H188.86V35ZM188.6 25.5938C188.6 25.8398 188.682 26.0426 188.846 26.2021C189.015 26.3617 189.222 26.4414 189.468 26.4414C189.728 26.4414 189.942 26.3617 190.111 26.2021C190.279 26.0426 190.363 25.8398 190.363 25.5938C190.363 25.3431 190.279 25.138 190.111 24.9785C189.942 24.819 189.728 24.7393 189.468 24.7393C189.222 24.7393 189.015 24.819 188.846 24.9785C188.682 25.138 188.6 25.3431 188.6 25.5938ZM195.399 35.1094C195.973 35.1094 196.468 34.984 196.882 34.7334C197.301 34.4827 197.623 34.1273 197.846 33.667C198.074 33.2067 198.188 32.6576 198.188 32.0195V30.7822C198.188 30.1488 198.076 29.6019 197.853 29.1416C197.63 28.6813 197.311 28.3258 196.896 28.0752C196.486 27.8245 195.998 27.6992 195.433 27.6992C195.178 27.6992 194.932 27.7288 194.695 27.7881C194.462 27.8473 194.253 27.9339 194.066 28.0479C193.879 28.1572 193.722 28.2894 193.594 28.4443C193.467 28.5947 193.373 28.7633 193.314 28.9502H193.252V25.1768H192.015V35H193.204V33.9336H193.266C193.375 34.1751 193.533 34.3848 193.738 34.5625C193.943 34.7402 194.187 34.877 194.469 34.9727C194.752 35.0638 195.062 35.1094 195.399 35.1094ZM195.16 34.0498C194.79 34.0498 194.462 33.9655 194.175 33.7969C193.888 33.6283 193.662 33.3936 193.498 33.0928C193.334 32.792 193.252 32.4502 193.252 32.0674V30.8848C193.252 30.4473 193.328 30.069 193.478 29.75C193.633 29.431 193.849 29.1872 194.127 29.0186C194.41 28.8454 194.743 28.7588 195.125 28.7588C195.513 28.7588 195.841 28.8499 196.11 29.0322C196.379 29.21 196.584 29.4697 196.725 29.8115C196.871 30.1488 196.944 30.5589 196.944 31.042V31.8076C196.944 32.2816 196.873 32.6872 196.732 33.0244C196.595 33.3571 196.392 33.6123 196.123 33.79C195.859 33.9632 195.538 34.0498 195.16 34.0498ZM199.689 35H200.933V30.5566C200.933 30.2285 201.004 29.9346 201.145 29.6748C201.286 29.415 201.496 29.2077 201.774 29.0527C202.057 28.8978 202.407 28.8203 202.827 28.8203C202.941 28.8203 203.05 28.8249 203.155 28.834C203.264 28.8385 203.349 28.8477 203.408 28.8613V27.7334C203.335 27.7243 203.26 27.7174 203.182 27.7129C203.109 27.7038 203.034 27.6992 202.957 27.6992C202.537 27.6992 202.193 27.7699 201.924 27.9111C201.656 28.0479 201.448 28.2096 201.302 28.3965C201.157 28.5833 201.052 28.7565 200.988 28.916H200.926V27.8086H199.689V35ZM206.29 35.1162C206.645 35.1162 206.955 35.0684 207.22 34.9727C207.484 34.8724 207.707 34.7402 207.889 34.5762C208.076 34.4121 208.229 34.2344 208.347 34.043H208.402V35H209.592V30.0918C209.592 29.5039 209.469 29.0345 209.222 28.6836C208.976 28.3327 208.648 28.0798 208.238 27.9248C207.832 27.7699 207.381 27.6924 206.885 27.6924C206.484 27.6924 206.123 27.7357 205.804 27.8223C205.485 27.9043 205.212 28.0273 204.984 28.1914C204.756 28.3509 204.576 28.5492 204.444 28.7861C204.317 29.0186 204.239 29.2874 204.212 29.5928H205.408C205.458 29.4242 205.536 29.276 205.64 29.1484C205.75 29.0208 205.9 28.9206 206.092 28.8477C206.288 28.7747 206.538 28.7383 206.844 28.7383C207.304 28.7383 207.668 28.8477 207.937 29.0664C208.211 29.2852 208.347 29.6247 208.347 30.085V30.7959H206.468C205.643 30.7959 205.014 30.9919 204.581 31.3838C204.152 31.7712 203.938 32.2793 203.938 32.9082C203.938 33.5736 204.155 34.109 204.588 34.5146C205.025 34.9157 205.593 35.1162 206.29 35.1162ZM206.632 34.0771C206.258 34.0771 205.925 33.9792 205.634 33.7832C205.346 33.5872 205.203 33.2819 205.203 32.8672C205.203 32.5436 205.308 32.2747 205.517 32.0605C205.732 31.8464 206.082 31.7393 206.57 31.7393H208.347V32.5391C208.347 32.8353 208.27 33.0996 208.115 33.332C207.965 33.5599 207.762 33.7422 207.507 33.8789C207.251 34.0111 206.96 34.0771 206.632 34.0771ZM211.4 35H212.645V30.5566C212.645 30.2285 212.715 29.9346 212.856 29.6748C212.998 29.415 213.207 29.2077 213.485 29.0527C213.768 28.8978 214.119 28.8203 214.538 28.8203C214.652 28.8203 214.761 28.8249 214.866 28.834C214.976 28.8385 215.06 28.8477 215.119 28.8613V27.7334C215.046 27.7243 214.971 27.7174 214.894 27.7129C214.821 27.7038 214.745 27.6992 214.668 27.6992C214.249 27.6992 213.905 27.7699 213.636 27.9111C213.367 28.0479 213.16 28.2096 213.014 28.3965C212.868 28.5833 212.763 28.7565 212.699 28.916H212.638V27.8086H211.4V35ZM222.028 27.8086H220.715L218.808 33.79H218.753L216.853 27.8086H215.479L218.117 35.0957L218.042 35.3623C217.933 35.7679 217.766 36.0573 217.543 36.2305C217.32 36.4082 217.005 36.4971 216.6 36.4971C216.527 36.4971 216.433 36.4925 216.32 36.4834C216.21 36.4743 216.128 36.4674 216.073 36.4629V37.4609C216.165 37.4792 216.279 37.4928 216.415 37.502C216.552 37.5156 216.675 37.5225 216.784 37.5225C217.409 37.5225 217.919 37.3607 218.316 37.0371C218.712 36.7135 219.052 36.1689 219.334 35.4033L219.485 35.0137C219.681 34.4622 219.881 33.8971 220.086 33.3184C220.291 32.7396 220.501 32.1494 220.715 31.5479C220.929 30.9417 221.146 30.3265 221.364 29.7021C221.583 29.0778 221.804 28.4466 222.028 27.8086ZM226.144 35H227.381V28.834H229.036V27.8291H227.368V27.207C227.368 26.7786 227.463 26.4893 227.655 26.3389C227.846 26.1839 228.154 26.1064 228.578 26.1064C228.669 26.1064 228.785 26.1087 228.926 26.1133C229.068 26.1178 229.166 26.1247 229.22 26.1338V25.1357C229.152 25.1266 229.038 25.1175 228.879 25.1084C228.719 25.0993 228.559 25.0947 228.4 25.0947C227.598 25.0947 227.021 25.2588 226.671 25.5869C226.32 25.9105 226.144 26.4186 226.144 27.1113V27.8291H224.934V28.834H226.144V35ZM232.8 27.6924C232.203 27.6924 231.669 27.8223 231.2 28.082C230.731 28.3418 230.361 28.7087 230.093 29.1826C229.824 29.6566 229.689 30.2194 229.689 30.8711V31.9307C229.689 32.6097 229.821 33.1885 230.086 33.667C230.355 34.141 230.721 34.501 231.186 34.7471C231.656 34.9932 232.193 35.1162 232.8 35.1162C233.397 35.1162 233.928 34.9932 234.392 34.7471C234.862 34.4964 235.231 34.1341 235.5 33.6602C235.769 33.1816 235.903 32.6051 235.903 31.9307V30.8643C235.903 30.1989 235.769 29.6292 235.5 29.1553C235.231 28.6768 234.862 28.3145 234.392 28.0684C233.928 27.8177 233.397 27.6924 232.8 27.6924ZM232.806 28.7451C233.189 28.7451 233.52 28.8408 233.798 29.0322C234.076 29.2191 234.288 29.4788 234.433 29.8115C234.584 30.1442 234.659 30.5316 234.659 30.9736V31.8418C234.659 32.2884 234.586 32.6781 234.44 33.0107C234.299 33.3434 234.089 33.6032 233.811 33.79C233.538 33.9769 233.203 34.0703 232.806 34.0703C232.405 34.0703 232.064 33.9769 231.781 33.79C231.503 33.6032 231.291 33.3434 231.145 33.0107C230.999 32.6781 230.927 32.2884 230.927 31.8418V30.9736C230.927 30.5361 231.002 30.151 231.152 29.8184C231.307 29.4811 231.524 29.2191 231.802 29.0322C232.084 28.8408 232.419 28.7451 232.806 28.7451ZM237.391 35H238.635V30.5566C238.635 30.2285 238.705 29.9346 238.847 29.6748C238.988 29.415 239.198 29.2077 239.476 29.0527C239.758 28.8978 240.109 28.8203 240.528 28.8203C240.642 28.8203 240.752 28.8249 240.856 28.834C240.966 28.8385 241.05 28.8477 241.109 28.8613V27.7334C241.036 27.7243 240.961 27.7174 240.884 27.7129C240.811 27.7038 240.736 27.6992 240.658 27.6992C240.239 27.6992 239.895 27.7699 239.626 27.9111C239.357 28.0479 239.15 28.2096 239.004 28.3965C238.858 28.5833 238.753 28.7565 238.689 28.916H238.628V27.8086H237.391V35ZM247.926 35.1094C248.5 35.1094 248.995 34.984 249.41 34.7334C249.829 34.4827 250.15 34.1273 250.373 33.667C250.601 33.2067 250.715 32.6576 250.715 32.0195V30.7822C250.715 30.1488 250.604 29.6019 250.38 29.1416C250.157 28.6813 249.838 28.3258 249.423 28.0752C249.013 27.8245 248.525 27.6992 247.96 27.6992C247.705 27.6992 247.459 27.7288 247.222 27.7881C246.99 27.8473 246.78 27.9339 246.593 28.0479C246.406 28.1572 246.249 28.2894 246.121 28.4443C245.994 28.5947 245.9 28.7633 245.841 28.9502H245.78V25.1768H244.542V35H245.732V33.9336H245.793C245.903 34.1751 246.06 34.3848 246.265 34.5625C246.47 34.7402 246.714 34.877 246.996 34.9727C247.279 35.0638 247.589 35.1094 247.926 35.1094ZM247.687 34.0498C247.318 34.0498 246.99 33.9655 246.703 33.7969C246.415 33.6283 246.19 33.3936 246.026 33.0928C245.862 32.792 245.78 32.4502 245.78 32.0674V30.8848C245.78 30.4473 245.855 30.069 246.005 29.75C246.16 29.431 246.377 29.1872 246.655 29.0186C246.937 28.8454 247.27 28.7588 247.653 28.7588C248.04 28.7588 248.368 28.8499 248.637 29.0322C248.906 29.21 249.111 29.4697 249.252 29.8115C249.398 30.1488 249.471 30.5589 249.471 31.042V31.8076C249.471 32.2816 249.4 32.6872 249.259 33.0244C249.122 33.3571 248.92 33.6123 248.651 33.79C248.386 33.9632 248.065 34.0498 247.687 34.0498ZM257.945 27.8086H256.708V32.3408C256.708 32.6462 256.626 32.9287 256.462 33.1885C256.302 33.4482 256.083 33.6556 255.805 33.8105C255.527 33.9609 255.211 34.0361 254.855 34.0361C254.568 34.0361 254.306 33.9883 254.069 33.8926C253.837 33.7969 253.647 33.6351 253.502 33.4072C253.36 33.1748 253.29 32.8604 253.29 32.4639V27.8086H252.052V32.7988C252.052 33.3548 252.157 33.8037 252.367 34.1455C252.576 34.4827 252.866 34.7288 253.235 34.8838C253.609 35.0387 254.035 35.1162 254.513 35.1162C254.933 35.1162 255.288 35.0479 255.58 34.9111C255.876 34.7699 256.111 34.599 256.284 34.3984C256.462 34.1979 256.585 33.9997 256.653 33.8037H256.721V35H257.945V27.8086ZM259.849 35H261.087V27.8086H259.849V35ZM259.59 25.5938C259.59 25.8398 259.672 26.0426 259.836 26.2021C260.004 26.3617 260.212 26.4414 260.458 26.4414C260.718 26.4414 260.932 26.3617 261.1 26.2021C261.269 26.0426 261.353 25.8398 261.353 25.5938C261.353 25.3431 261.269 25.138 261.1 24.9785C260.932 24.819 260.718 24.7393 260.458 24.7393C260.212 24.7393 260.004 24.819 259.836 24.9785C259.672 25.138 259.59 25.3431 259.59 25.5938ZM263.039 35H264.276V25.1768H263.039V35ZM268.485 27.6992C267.929 27.6992 267.441 27.8245 267.022 28.0752C266.602 28.3213 266.277 28.6699 266.044 29.1211C265.812 29.5677 265.696 30.0964 265.696 30.707V32.1016C265.696 32.7077 265.809 33.2363 266.037 33.6875C266.265 34.1387 266.584 34.4873 266.994 34.7334C267.409 34.9795 267.897 35.1025 268.457 35.1025C268.722 35.1025 268.972 35.0706 269.209 35.0068C269.446 34.9476 269.66 34.8633 269.852 34.7539C270.048 34.6445 270.212 34.5146 270.344 34.3643C270.476 34.2093 270.567 34.0384 270.617 33.8516H270.679V35H271.868V25.1768H270.631V28.875H270.57C270.474 28.6335 270.326 28.4238 270.125 28.2461C269.929 28.0684 269.692 27.9339 269.414 27.8428C269.136 27.7471 268.826 27.6992 268.485 27.6992ZM268.738 28.7588C269.102 28.7588 269.426 28.8431 269.708 29.0117C269.995 29.1758 270.221 29.4059 270.385 29.7021C270.549 29.9938 270.631 30.3288 270.631 30.707V31.9512C270.631 32.3796 270.554 32.751 270.399 33.0654C270.244 33.3753 270.027 33.6169 269.749 33.79C269.476 33.9587 269.15 34.043 268.772 34.043C268.393 34.043 268.068 33.9564 267.794 33.7832C267.521 33.61 267.309 33.3594 267.158 33.0312C267.013 32.6986 266.94 32.2998 266.94 31.835V30.96C266.94 30.4997 267.013 30.1055 267.158 29.7773C267.304 29.4492 267.509 29.1986 267.774 29.0254C268.043 28.8477 268.364 28.7588 268.738 28.7588ZM273.8 35H275.038V27.8086H273.8V35ZM273.54 25.5938C273.54 25.8398 273.622 26.0426 273.787 26.2021C273.955 26.3617 274.163 26.4414 274.409 26.4414C274.668 26.4414 274.883 26.3617 275.051 26.2021C275.22 26.0426 275.304 25.8398 275.304 25.5938C275.304 25.3431 275.22 25.138 275.051 24.9785C274.883 24.819 274.668 24.7393 274.409 24.7393C274.163 24.7393 273.955 24.819 273.787 24.9785C273.622 25.138 273.54 25.3431 273.54 25.5938ZM276.949 35H278.186V30.9941C278.186 30.5794 278.254 30.2035 278.391 29.8662C278.528 29.529 278.735 29.2624 279.013 29.0664C279.296 28.8704 279.647 28.7725 280.066 28.7725C280.39 28.7725 280.668 28.8363 280.9 28.9639C281.132 29.0915 281.31 29.2829 281.433 29.5381C281.561 29.7887 281.625 30.1032 281.625 30.4814V35H282.862V30.0918C282.862 29.2852 282.636 28.6836 282.185 28.2871C281.734 27.8906 281.146 27.6924 280.421 27.6924C279.92 27.6924 279.521 27.7721 279.225 27.9316C278.929 28.0911 278.706 28.2803 278.555 28.499C278.405 28.7178 278.3 28.9229 278.241 29.1143H278.172V27.8086H276.949V35ZM287.159 36.5928C286.845 36.5928 286.571 36.5495 286.339 36.4629C286.111 36.3809 285.929 36.2692 285.792 36.1279C285.655 35.9867 285.571 35.8317 285.539 35.6631H284.281C284.313 36.0094 284.436 36.3307 284.65 36.627C284.864 36.9277 285.174 37.1693 285.58 37.3516C285.99 37.5384 286.503 37.6318 287.118 37.6318C287.578 37.6318 288 37.5771 288.383 37.4678C288.77 37.3584 289.105 37.1875 289.387 36.9551C289.67 36.7227 289.889 36.4264 290.044 36.0664C290.203 35.7064 290.283 35.278 290.283 34.7812V27.8086H289.1V28.8955H289.039C288.961 28.695 288.827 28.5036 288.636 28.3213C288.444 28.139 288.205 27.9909 287.918 27.877C287.635 27.7585 287.314 27.6992 286.954 27.6992C286.425 27.6992 285.947 27.82 285.518 28.0615C285.09 28.3031 284.75 28.6517 284.5 29.1074C284.249 29.5586 284.124 30.1009 284.124 30.7344V31.8486C284.124 32.4775 284.249 33.0199 284.5 33.4756C284.75 33.9268 285.09 34.2731 285.518 34.5146C285.951 34.7516 286.432 34.8701 286.961 34.8701C287.211 34.8701 287.444 34.8405 287.658 34.7812C287.872 34.722 288.066 34.6423 288.239 34.542C288.412 34.4372 288.56 34.3187 288.683 34.1865C288.811 34.0498 288.909 33.9017 288.977 33.7422H289.046V34.7881C289.046 35.3532 288.888 35.7952 288.574 36.1143C288.264 36.4333 287.792 36.5928 287.159 36.5928ZM287.262 28.7588C287.64 28.7588 287.961 28.8545 288.225 29.0459C288.49 29.2327 288.693 29.4788 288.834 29.7842C288.975 30.0895 289.046 30.4176 289.046 30.7686V31.8555C289.046 32.1927 288.977 32.5117 288.841 32.8125C288.708 33.1133 288.51 33.3594 288.246 33.5508C287.986 33.7376 287.663 33.8311 287.275 33.8311C286.906 33.8311 286.576 33.7399 286.284 33.5576C285.997 33.3708 285.771 33.1133 285.607 32.7852C285.448 32.4525 285.368 32.0697 285.368 31.6367V30.96C285.368 30.5225 285.445 30.1396 285.6 29.8115C285.755 29.4788 285.974 29.2214 286.257 29.0391C286.539 28.8522 286.874 28.7588 287.262 28.7588ZM291.743 34.1592C291.743 34.4326 291.839 34.6628 292.03 34.8496C292.222 35.0319 292.452 35.123 292.721 35.123C293.003 35.123 293.24 35.0319 293.432 34.8496C293.623 34.6628 293.719 34.4326 293.719 34.1592C293.719 33.8721 293.623 33.6351 293.432 33.4482C293.24 33.2614 293.003 33.168 292.721 33.168C292.452 33.168 292.222 33.2614 292.03 33.4482C291.839 33.6305 291.743 33.8675 291.743 34.1592ZM295.145 34.1592C295.145 34.4326 295.24 34.6628 295.432 34.8496C295.623 35.0319 295.853 35.123 296.122 35.123C296.405 35.123 296.642 35.0319 296.833 34.8496C297.025 34.6628 297.12 34.4326 297.12 34.1592C297.12 33.8721 297.025 33.6351 296.833 33.4482C296.642 33.2614 296.405 33.168 296.122 33.168C295.853 33.168 295.623 33.2614 295.432 33.4482C295.24 33.6305 295.145 33.8675 295.145 34.1592Z" fill="black"/>
<rect width="56" height="51" transform="translate(0 13)" fill="white"/>
<circle cx="28.5" cy="38.5" r="19.5" fill="#878787"/>
<path d="M35.6978 37.6597C36.3082 38.0536 36.3082 38.9464 35.6978 39.3403L25.7922 45.7321C25.1268 46.1615 24.25 45.6838 24.25 44.8919L24.25 32.1082C24.25 31.3162 25.1268 30.8385 25.7922 31.2679L35.6978 37.6597Z" fill="white"/>
<path d="M74.8691 46.8633C74.8691 46.2227 74.9414 45.6719 75.0859 45.2109C75.2344 44.7461 75.4414 44.3906 75.707 44.1445C75.9766 43.8945 76.293 43.7695 76.6562 43.7695C77.0273 43.7695 77.3457 43.8945 77.6113 44.1445C77.877 44.3906 78.082 44.7461 78.2266 45.2109C78.3711 45.6719 78.4434 46.2227 78.4434 46.8633V47.1445C78.4434 47.7852 78.3711 48.3359 78.2266 48.7969C78.082 49.2578 77.877 49.6133 77.6113 49.8633C77.3457 50.1094 77.0273 50.2324 76.6562 50.2324C76.293 50.2324 75.9766 50.1094 75.707 49.8633C75.4414 49.6133 75.2344 49.2578 75.0859 48.7969C74.9414 48.3359 74.8691 47.7852 74.8691 47.1445V46.8633ZM73.7969 47.1562C73.7969 47.9648 73.9082 48.6699 74.1309 49.2715C74.3574 49.8691 74.6836 50.334 75.1094 50.666C75.5391 50.998 76.0547 51.1641 76.6562 51.1641C77.1094 51.1641 77.5137 51.0703 77.8691 50.8828C78.2246 50.6953 78.5234 50.4258 78.7656 50.0742C79.0117 49.7188 79.1973 49.2949 79.3223 48.8027C79.4512 48.3105 79.5156 47.7617 79.5156 47.1562V46.8574C79.5156 46.0449 79.4043 45.3398 79.1816 44.7422C78.959 44.1406 78.6348 43.6738 78.209 43.3418C77.7871 43.0059 77.2734 42.8379 76.668 42.8379C76.0625 42.8379 75.5449 43.0059 75.1152 43.3418C74.6895 43.6738 74.3633 44.1426 74.1367 44.748C73.9102 45.3496 73.7969 46.0527 73.7969 46.8574V47.1562ZM81.5816 46.8633C81.5816 46.2227 81.6539 45.6719 81.7984 45.2109C81.9469 44.7461 82.1539 44.3906 82.4195 44.1445C82.6891 43.8945 83.0055 43.7695 83.3688 43.7695C83.7398 43.7695 84.0582 43.8945 84.3238 44.1445C84.5895 44.3906 84.7945 44.7461 84.9391 45.2109C85.0836 45.6719 85.1559 46.2227 85.1559 46.8633V47.1445C85.1559 47.7852 85.0836 48.3359 84.9391 48.7969C84.7945 49.2578 84.5895 49.6133 84.3238 49.8633C84.0582 50.1094 83.7398 50.2324 83.3688 50.2324C83.0055 50.2324 82.6891 50.1094 82.4195 49.8633C82.1539 49.6133 81.9469 49.2578 81.7984 48.7969C81.6539 48.3359 81.5816 47.7852 81.5816 47.1445V46.8633ZM80.5094 47.1562C80.5094 47.9648 80.6207 48.6699 80.8434 49.2715C81.0699 49.8691 81.3961 50.334 81.8219 50.666C82.2516 50.998 82.7672 51.1641 83.3688 51.1641C83.8219 51.1641 84.2262 51.0703 84.5816 50.8828C84.9371 50.6953 85.2359 50.4258 85.4781 50.0742C85.7242 49.7188 85.9098 49.2949 86.0348 48.8027C86.1637 48.3105 86.2281 47.7617 86.2281 47.1562V46.8574C86.2281 46.0449 86.1168 45.3398 85.8941 44.7422C85.6715 44.1406 85.3473 43.6738 84.9215 43.3418C84.4996 43.0059 83.9859 42.8379 83.3805 42.8379C82.775 42.8379 82.2574 43.0059 81.8277 43.3418C81.402 43.6738 81.0758 44.1426 80.8492 44.748C80.6227 45.3496 80.5094 46.0527 80.5094 46.8574V47.1562ZM87.3508 49.0605C87.3508 49.2988 87.4328 49.4961 87.5969 49.6523C87.7609 49.8086 87.9582 49.8867 88.1887 49.8867C88.4309 49.8867 88.634 49.8086 88.798 49.6523C88.966 49.4961 89.05 49.2988 89.05 49.0605C89.05 48.8145 88.966 48.6113 88.798 48.4512C88.634 48.291 88.4309 48.2109 88.1887 48.2109C87.9582 48.2109 87.7609 48.291 87.5969 48.4512C87.4328 48.6113 87.3508 48.8145 87.3508 49.0605ZM87.3508 45.0762C87.3508 45.3105 87.4328 45.5078 87.5969 45.668C87.7609 45.8242 87.9582 45.9023 88.1887 45.9023C88.4309 45.9023 88.634 45.8242 88.798 45.668C88.966 45.5078 89.05 45.3105 89.05 45.0762C89.05 44.8301 88.966 44.627 88.798 44.4668C88.634 44.3066 88.4309 44.2266 88.1887 44.2266C87.9582 44.2266 87.7609 44.3066 87.5969 44.4668C87.4328 44.623 87.3508 44.8262 87.3508 45.0762ZM91.948 47.3379H92.8211C93.1492 47.3379 93.4363 47.3984 93.6824 47.5195C93.9324 47.6367 94.1277 47.8027 94.2684 48.0176C94.4129 48.2324 94.4871 48.4844 94.491 48.7734C94.4949 49.0586 94.4266 49.3145 94.2859 49.541C94.1453 49.7637 93.9441 49.9395 93.6824 50.0684C93.4246 50.1934 93.1199 50.2559 92.7684 50.2559C92.4598 50.252 92.1844 50.2012 91.9422 50.1035C91.7039 50.002 91.5125 49.8672 91.368 49.6992C91.2234 49.5273 91.1375 49.3359 91.1102 49.125H90.1023C90.1219 49.5039 90.2391 49.8496 90.4539 50.1621C90.6727 50.4707 90.9754 50.7168 91.3621 50.9004C91.7527 51.0801 92.2137 51.1699 92.7449 51.1699C93.159 51.1699 93.5398 51.1133 93.8875 51C94.2352 50.8828 94.5359 50.7168 94.7898 50.502C95.0477 50.2871 95.2449 50.0332 95.3816 49.7402C95.5223 49.4473 95.5887 49.127 95.5809 48.7793C95.573 48.3496 95.4695 47.998 95.2703 47.7246C95.075 47.4473 94.8426 47.2383 94.573 47.0977C94.3074 46.957 94.0613 46.875 93.8348 46.8516V46.793C94.0379 46.7578 94.2566 46.6621 94.491 46.5059C94.7254 46.3457 94.9227 46.1289 95.0828 45.8555C95.2469 45.582 95.323 45.2578 95.3113 44.8828C95.3035 44.4922 95.1941 44.1426 94.9832 43.834C94.7723 43.5254 94.4793 43.2812 94.1043 43.1016C93.7293 42.9219 93.2879 42.834 92.7801 42.8379C92.3777 42.8418 92.0242 42.9004 91.7195 43.0137C91.4148 43.127 91.157 43.2793 90.9461 43.4707C90.7391 43.6582 90.5809 43.873 90.4715 44.1152C90.3621 44.3535 90.3035 44.6016 90.2957 44.8594H91.3211C91.3328 44.7109 91.3738 44.5703 91.4441 44.4375C91.5184 44.3047 91.6199 44.1875 91.7488 44.0859C91.8777 43.9805 92.0262 43.8984 92.1941 43.8398C92.366 43.7773 92.5594 43.7461 92.7742 43.7461C93.2039 43.7461 93.5535 43.8672 93.823 44.1094C94.0926 44.3516 94.2273 44.666 94.2273 45.0527C94.2313 45.3145 94.1707 45.5488 94.0457 45.7559C93.9207 45.9629 93.7469 46.125 93.5242 46.2422C93.3055 46.3594 93.0555 46.418 92.7742 46.418H91.948V47.3379ZM97.6059 46.8633C97.6059 46.2227 97.6781 45.6719 97.8227 45.2109C97.9711 44.7461 98.1781 44.3906 98.4438 44.1445C98.7133 43.8945 99.0297 43.7695 99.393 43.7695C99.7641 43.7695 100.082 43.8945 100.348 44.1445C100.614 44.3906 100.819 44.7461 100.963 45.2109C101.108 45.6719 101.18 46.2227 101.18 46.8633V47.1445C101.18 47.7852 101.108 48.3359 100.963 48.7969C100.819 49.2578 100.614 49.6133 100.348 49.8633C100.082 50.1094 99.7641 50.2324 99.393 50.2324C99.0297 50.2324 98.7133 50.1094 98.4438 49.8633C98.1781 49.6133 97.9711 49.2578 97.8227 48.7969C97.6781 48.3359 97.6059 47.7852 97.6059 47.1445V46.8633ZM96.5336 47.1562C96.5336 47.9648 96.6449 48.6699 96.8676 49.2715C97.0941 49.8691 97.4203 50.334 97.8461 50.666C98.2758 50.998 98.7914 51.1641 99.393 51.1641C99.8461 51.1641 100.25 51.0703 100.606 50.8828C100.961 50.6953 101.26 50.4258 101.502 50.0742C101.748 49.7188 101.934 49.2949 102.059 48.8027C102.188 48.3105 102.252 47.7617 102.252 47.1562V46.8574C102.252 46.0449 102.141 45.3398 101.918 44.7422C101.696 44.1406 101.371 43.6738 100.946 43.3418C100.524 43.0059 100.01 42.8379 99.4047 42.8379C98.7992 42.8379 98.2816 43.0059 97.852 43.3418C97.4262 43.6738 97.1 44.1426 96.8734 44.748C96.6469 45.3496 96.5336 46.0527 96.5336 46.8574V47.1562Z" fill="#6A6A6A"/>
<circle cx="333" cy="37" r="9" stroke="#878787" stroke-width="2"/>
<rect x="0.5" y="0.5" width="357" height="73" rx="3.5" stroke="#878787"/>
</svg>
