<svg width="210" height="44" viewBox="0 0 210 44" fill="none" xmlns="http://www.w3.org/2000/svg">
<rect x="1" y="1" width="208" height="42" rx="21" fill="white" stroke="#C9CACC" stroke-width="2"/>
<path d="M37.9062 19.7188C37.875 19.25 37.7604 18.8021 37.5625 18.375C37.3698 17.9479 37.0911 17.5677 36.7266 17.2344C36.362 16.8958 35.9141 16.6302 35.3828 16.4375C34.8516 16.2448 34.237 16.1484 33.5391 16.1484C32.5234 16.1484 31.6641 16.3542 30.9609 16.7656C30.2578 17.1771 29.724 17.7474 29.3594 18.4766C28.9948 19.2005 28.8125 20.0391 28.8125 20.9922V22.2734C28.8125 22.9714 28.9036 23.6198 29.0859 24.2188C29.2734 24.8125 29.5599 25.3333 29.9453 25.7812C30.3307 26.224 30.8203 26.5703 31.4141 26.8203C32.0078 27.0703 32.7135 27.1953 33.5312 27.1953C34.2969 27.1953 34.9557 27.0885 35.5078 26.875C36.0651 26.6562 36.5208 26.362 36.875 25.9922C37.2344 25.6172 37.5 25.1927 37.6719 24.7188C37.8438 24.2396 37.9297 23.7396 37.9297 23.2188V21.1406H33.6484V22.9453H35.5078V23.4141C35.5078 23.7109 35.4375 23.987 35.2969 24.2422C35.1562 24.4974 34.9427 24.7031 34.6562 24.8594C34.3698 25.0156 34.0104 25.0938 33.5781 25.0938C33.0521 25.0938 32.6276 24.9714 32.3047 24.7266C31.987 24.4766 31.7552 24.138 31.6094 23.7109C31.4688 23.2839 31.3984 22.8021 31.3984 22.2656V21.0156C31.3984 20.1354 31.5807 19.4557 31.9453 18.9766C32.3099 18.4922 32.8333 18.25 33.5156 18.25C33.7865 18.25 34.0286 18.2865 34.2422 18.3594C34.4609 18.4323 34.651 18.5365 34.8125 18.6719C34.974 18.8073 35.1042 18.9635 35.2031 19.1406C35.3021 19.3177 35.3698 19.5104 35.4062 19.7188H37.9062ZM42.4172 27.1562C43.0578 27.1562 43.6047 27.0703 44.0578 26.8984C44.5161 26.7214 44.8911 26.4948 45.1828 26.2188C45.4745 25.9375 45.6906 25.638 45.8313 25.3203C45.9771 25.0026 46.0578 24.7031 46.0734 24.4219H43.7922C43.7714 24.5938 43.6984 24.7474 43.5734 24.8828C43.4484 25.0182 43.2844 25.125 43.0813 25.2031C42.8833 25.276 42.6594 25.3125 42.4094 25.3125C41.9667 25.3125 41.5995 25.1693 41.3078 24.8828C41.0214 24.5911 40.8781 24.2057 40.8781 23.7266V23.3438H46.1281V22.4219C46.1281 21.6094 45.9667 20.9115 45.6438 20.3281C45.3208 19.7396 44.8729 19.2891 44.3 18.9766C43.7271 18.6641 43.063 18.5078 42.3078 18.5078C41.5995 18.5078 40.9536 18.6536 40.3703 18.9453C39.787 19.2318 39.3208 19.6667 38.9719 20.25C38.6281 20.8281 38.4563 21.5521 38.4563 22.4219V23.2188C38.4563 24.0833 38.6203 24.8099 38.9484 25.3984C39.2818 25.9818 39.7453 26.4219 40.3391 26.7188C40.938 27.0104 41.6307 27.1562 42.4172 27.1562ZM40.8781 21.9453C40.8781 21.9349 40.8781 21.9271 40.8781 21.9219C40.8781 21.9115 40.8781 21.901 40.8781 21.8906C40.8781 21.5729 40.938 21.2943 41.0578 21.0547C41.1828 20.8151 41.3521 20.6276 41.5656 20.4922C41.7844 20.3568 42.037 20.2891 42.3234 20.2891C42.6099 20.2891 42.8599 20.3568 43.0734 20.4922C43.287 20.6276 43.451 20.8151 43.5656 21.0547C43.6854 21.2943 43.7453 21.5729 43.7453 21.8906C43.7453 21.901 43.7453 21.9115 43.7453 21.9219C43.7453 21.9271 43.7453 21.9349 43.7453 21.9453H40.8781ZM46.7719 27H49.2641V22.3906C49.2641 22.0156 49.324 21.6953 49.4438 21.4297C49.5688 21.1589 49.7406 20.9531 49.9594 20.8125C50.1833 20.6667 50.4385 20.5938 50.725 20.5938C50.949 20.5938 51.1599 20.6432 51.3578 20.7422C51.5557 20.8359 51.7172 20.9948 51.8422 21.2188C51.9672 21.4427 52.0297 21.7526 52.0297 22.1484V27H54.5219V21.4844C54.5219 20.4948 54.2719 19.7552 53.7719 19.2656C53.2719 18.776 52.6026 18.5312 51.7641 18.5312C51.2432 18.5312 50.8135 18.6198 50.475 18.7969C50.1417 18.9688 49.8813 19.1771 49.6938 19.4219C49.5115 19.6615 49.3839 19.888 49.3109 20.1016H49.1859V18.6562H46.7719V27ZM59.1109 27.1562C59.7516 27.1562 60.2984 27.0703 60.7516 26.8984C61.2099 26.7214 61.5849 26.4948 61.8766 26.2188C62.1682 25.9375 62.3844 25.638 62.525 25.3203C62.6708 25.0026 62.7516 24.7031 62.7672 24.4219H60.4859C60.4651 24.5938 60.3922 24.7474 60.2672 24.8828C60.1422 25.0182 59.9781 25.125 59.775 25.2031C59.5771 25.276 59.3531 25.3125 59.1031 25.3125C58.6604 25.3125 58.2932 25.1693 58.0016 24.8828C57.7151 24.5911 57.5719 24.2057 57.5719 23.7266V23.3438H62.8219V22.4219C62.8219 21.6094 62.6604 20.9115 62.3375 20.3281C62.0146 19.7396 61.5667 19.2891 60.9937 18.9766C60.4208 18.6641 59.7568 18.5078 59.0016 18.5078C58.2932 18.5078 57.6474 18.6536 57.0641 18.9453C56.4807 19.2318 56.0146 19.6667 55.6656 20.25C55.3219 20.8281 55.15 21.5521 55.15 22.4219V23.2188C55.15 24.0833 55.3141 24.8099 55.6422 25.3984C55.9755 25.9818 56.4391 26.4219 57.0328 26.7188C57.6318 27.0104 58.3245 27.1562 59.1109 27.1562ZM57.5719 21.9453C57.5719 21.9349 57.5719 21.9271 57.5719 21.9219C57.5719 21.9115 57.5719 21.901 57.5719 21.8906C57.5719 21.5729 57.6318 21.2943 57.7516 21.0547C57.8766 20.8151 58.0458 20.6276 58.2594 20.4922C58.4781 20.3568 58.7307 20.2891 59.0172 20.2891C59.3036 20.2891 59.5536 20.3568 59.7672 20.4922C59.9807 20.6276 60.1448 20.8151 60.2594 21.0547C60.3792 21.2943 60.4391 21.5729 60.4391 21.8906C60.4391 21.901 60.4391 21.9115 60.4391 21.9219C60.4391 21.9271 60.4391 21.9349 60.4391 21.9453H57.5719ZM63.5203 27H66.0828V22.4766C66.0828 22.1068 66.1479 21.7839 66.2781 21.5078C66.4083 21.2266 66.6115 21.0104 66.8875 20.8594C67.1635 20.7031 67.5151 20.625 67.9422 20.625C68.1297 20.625 68.3068 20.6354 68.4734 20.6562C68.6401 20.6719 68.7677 20.6953 68.8563 20.7266V18.6094C68.7729 18.5833 68.6714 18.5651 68.5516 18.5547C68.4318 18.5443 68.2833 18.5391 68.1063 18.5391C67.7052 18.5391 67.3667 18.6198 67.0906 18.7812C66.8146 18.9427 66.5984 19.1354 66.4422 19.3594C66.2859 19.5781 66.1818 19.7839 66.1297 19.9766H66.0125V18.6562H63.5203V27ZM71.4531 27.125C71.8646 27.125 72.2135 27.0703 72.5 26.9609C72.7917 26.8464 73.0286 26.7005 73.2109 26.5234C73.3984 26.3464 73.5391 26.1641 73.6328 25.9766H73.75V27H76.0859V21.4531C76.0859 20.7344 75.9245 20.1615 75.6016 19.7344C75.2839 19.3073 74.8542 19 74.3125 18.8125C73.776 18.625 73.1771 18.5312 72.5156 18.5312C71.875 18.5312 71.3333 18.6068 70.8906 18.7578C70.4479 18.9036 70.0911 19.1042 69.8203 19.3594C69.5495 19.6094 69.349 19.8932 69.2188 20.2109C69.0885 20.5234 69.0156 20.8464 69 21.1797H71.3359C71.3568 21.0182 71.4115 20.875 71.5 20.75C71.5938 20.625 71.7214 20.5286 71.8828 20.4609C72.0443 20.388 72.2422 20.3516 72.4766 20.3516C72.8307 20.3516 73.112 20.4375 73.3203 20.6094C73.5286 20.7812 73.6328 21.0365 73.6328 21.375V22.0703H71.6875C70.7188 22.0703 69.9766 22.2995 69.4609 22.7578C68.9505 23.2109 68.6953 23.8177 68.6953 24.5781C68.6953 25.375 68.9505 26 69.4609 26.4531C69.9766 26.901 70.6406 27.125 71.4531 27.125ZM72.3125 25.3828C72.0104 25.3828 71.7396 25.3021 71.5 25.1406C71.2656 24.974 71.1484 24.724 71.1484 24.3906C71.1484 24.1094 71.25 23.8802 71.4531 23.7031C71.6562 23.526 71.9531 23.4375 72.3438 23.4375H73.6328V24.25C73.6328 24.474 73.5703 24.6719 73.4453 24.8438C73.3255 25.0104 73.1641 25.1432 72.9609 25.2422C72.763 25.3359 72.5469 25.3828 72.3125 25.3828ZM77.6906 18.7812H76.3625V20.6484H77.6359V24.625C77.6359 25.2031 77.7349 25.6693 77.9328 26.0234C78.1359 26.3776 78.4562 26.6354 78.8937 26.7969C79.3365 26.9531 79.912 27.0312 80.6203 27.0312C80.912 27.0312 81.1854 27.0182 81.4406 26.9922C81.701 26.9661 81.8781 26.9453 81.9719 26.9297V25.1406C81.899 25.1458 81.7922 25.1536 81.6516 25.1641C81.5161 25.1693 81.3729 25.1719 81.2219 25.1719C80.8417 25.1719 80.5578 25.1016 80.3703 24.9609C80.188 24.8151 80.0969 24.5573 80.0969 24.1875V20.6484H81.925V18.7812H80.0969V16.7188H77.6906V18.7812ZM86.1391 27.1562C86.7797 27.1562 87.3266 27.0703 87.7797 26.8984C88.238 26.7214 88.613 26.4948 88.9047 26.2188C89.1964 25.9375 89.4125 25.638 89.5531 25.3203C89.699 25.0026 89.7797 24.7031 89.7953 24.4219H87.5141C87.4932 24.5938 87.4203 24.7474 87.2953 24.8828C87.1703 25.0182 87.0062 25.125 86.8031 25.2031C86.6052 25.276 86.3812 25.3125 86.1312 25.3125C85.6885 25.3125 85.3214 25.1693 85.0297 24.8828C84.7432 24.5911 84.6 24.2057 84.6 23.7266V23.3438H89.85V22.4219C89.85 21.6094 89.6885 20.9115 89.3656 20.3281C89.0427 19.7396 88.5948 19.2891 88.0219 18.9766C87.449 18.6641 86.7849 18.5078 86.0297 18.5078C85.3214 18.5078 84.6755 18.6536 84.0922 18.9453C83.5089 19.2318 83.0427 19.6667 82.6937 20.25C82.35 20.8281 82.1781 21.5521 82.1781 22.4219V23.2188C82.1781 24.0833 82.3422 24.8099 82.6703 25.3984C83.0036 25.9818 83.4672 26.4219 84.0609 26.7188C84.6599 27.0104 85.3526 27.1562 86.1391 27.1562ZM84.6 21.9453C84.6 21.9349 84.6 21.9271 84.6 21.9219C84.6 21.9115 84.6 21.901 84.6 21.8906C84.6 21.5729 84.6599 21.2943 84.7797 21.0547C84.9047 20.8151 85.074 20.6276 85.2875 20.4922C85.5062 20.3568 85.7589 20.2891 86.0453 20.2891C86.3318 20.2891 86.5818 20.3568 86.7953 20.4922C87.0089 20.6276 87.1729 20.8151 87.2875 21.0547C87.4073 21.2943 87.4672 21.5729 87.4672 21.8906C87.4672 21.901 87.4672 21.9115 87.4672 21.9219C87.4672 21.9271 87.4672 21.9349 87.4672 21.9453H84.6ZM99.7812 27V18.4375H102.688V16.3359H94.3125V18.4375H97.2188V27H99.7812ZM102.573 27H105.136V22.4766C105.136 22.1068 105.201 21.7839 105.331 21.5078C105.461 21.2266 105.665 21.0104 105.941 20.8594C106.217 20.7031 106.568 20.625 106.995 20.625C107.183 20.625 107.36 20.6354 107.527 20.6562C107.693 20.6719 107.821 20.6953 107.909 20.7266V18.6094C107.826 18.5833 107.724 18.5651 107.605 18.5547C107.485 18.5443 107.336 18.5391 107.159 18.5391C106.758 18.5391 106.42 18.6198 106.144 18.7812C105.868 18.9427 105.652 19.1354 105.495 19.3594C105.339 19.5781 105.235 19.7839 105.183 19.9766H105.066V18.6562H102.573V27ZM110.506 27.125C110.918 27.125 111.267 27.0703 111.553 26.9609C111.845 26.8464 112.082 26.7005 112.264 26.5234C112.452 26.3464 112.592 26.1641 112.686 25.9766H112.803V27H115.139V21.4531C115.139 20.7344 114.978 20.1615 114.655 19.7344C114.337 19.3073 113.907 19 113.366 18.8125C112.829 18.625 112.23 18.5312 111.569 18.5312C110.928 18.5312 110.386 18.6068 109.944 18.7578C109.501 18.9036 109.144 19.1042 108.873 19.3594C108.603 19.6094 108.402 19.8932 108.272 20.2109C108.142 20.5234 108.069 20.8464 108.053 21.1797H110.389C110.41 21.0182 110.465 20.875 110.553 20.75C110.647 20.625 110.774 20.5286 110.936 20.4609C111.097 20.388 111.295 20.3516 111.53 20.3516C111.884 20.3516 112.165 20.4375 112.373 20.6094C112.582 20.7812 112.686 21.0365 112.686 21.375V22.0703H110.741C109.772 22.0703 109.03 22.2995 108.514 22.7578C108.004 23.2109 107.748 23.8177 107.748 24.5781C107.748 25.375 108.004 26 108.514 26.4531C109.03 26.901 109.694 27.125 110.506 27.125ZM111.366 25.3828C111.064 25.3828 110.793 25.3021 110.553 25.1406C110.319 24.974 110.202 24.724 110.202 24.3906C110.202 24.1094 110.303 23.8802 110.506 23.7031C110.709 23.526 111.006 23.4375 111.397 23.4375H112.686V24.25C112.686 24.474 112.623 24.6719 112.498 24.8438C112.379 25.0104 112.217 25.1432 112.014 25.2422C111.816 25.3359 111.6 25.3828 111.366 25.3828ZM116.228 27H118.72V18.6562H116.228V27ZM115.986 16.2734C115.986 16.6484 116.121 16.9505 116.392 17.1797C116.668 17.4036 117.028 17.5156 117.47 17.5156C117.918 17.5156 118.278 17.4036 118.548 17.1797C118.819 16.9505 118.955 16.6484 118.955 16.2734C118.955 15.8932 118.817 15.5885 118.541 15.3594C118.27 15.1302 117.913 15.0156 117.47 15.0156C117.022 15.0156 116.663 15.1302 116.392 15.3594C116.121 15.5885 115.986 15.8932 115.986 16.2734ZM119.942 27H122.434V15.7734H119.942V27ZM127.102 27.1562C127.742 27.1562 128.289 27.0703 128.742 26.8984C129.201 26.7214 129.576 26.4948 129.867 26.2188C130.159 25.9375 130.375 25.638 130.516 25.3203C130.661 25.0026 130.742 24.7031 130.758 24.4219H128.477C128.456 24.5938 128.383 24.7474 128.258 24.8828C128.133 25.0182 127.969 25.125 127.766 25.2031C127.568 25.276 127.344 25.3125 127.094 25.3125C126.651 25.3125 126.284 25.1693 125.992 24.8828C125.706 24.5911 125.562 24.2057 125.562 23.7266V23.3438H130.812V22.4219C130.812 21.6094 130.651 20.9115 130.328 20.3281C130.005 19.7396 129.557 19.2891 128.984 18.9766C128.411 18.6641 127.747 18.5078 126.992 18.5078C126.284 18.5078 125.638 18.6536 125.055 18.9453C124.471 19.2318 124.005 19.6667 123.656 20.25C123.312 20.8281 123.141 21.5521 123.141 22.4219V23.2188C123.141 24.0833 123.305 24.8099 123.633 25.3984C123.966 25.9818 124.43 26.4219 125.023 26.7188C125.622 27.0104 126.315 27.1562 127.102 27.1562ZM125.562 21.9453C125.562 21.9349 125.562 21.9271 125.562 21.9219C125.562 21.9115 125.562 21.901 125.562 21.8906C125.562 21.5729 125.622 21.2943 125.742 21.0547C125.867 20.8151 126.036 20.6276 126.25 20.4922C126.469 20.3568 126.721 20.2891 127.008 20.2891C127.294 20.2891 127.544 20.3568 127.758 20.4922C127.971 20.6276 128.135 20.8151 128.25 21.0547C128.37 21.2943 128.43 21.5729 128.43 21.8906C128.43 21.901 128.43 21.9115 128.43 21.9219C128.43 21.9271 128.43 21.9349 128.43 21.9453H125.562ZM131.511 27H134.073V22.4766C134.073 22.1068 134.139 21.7839 134.269 21.5078C134.399 21.2266 134.602 21.0104 134.878 20.8594C135.154 20.7031 135.506 20.625 135.933 20.625C136.12 20.625 136.297 20.6354 136.464 20.6562C136.631 20.6719 136.758 20.6953 136.847 20.7266V18.6094C136.764 18.5833 136.662 18.5651 136.542 18.5547C136.422 18.5443 136.274 18.5391 136.097 18.5391C135.696 18.5391 135.357 18.6198 135.081 18.7812C134.805 18.9427 134.589 19.1354 134.433 19.3594C134.277 19.5781 134.172 19.7839 134.12 19.9766H134.003V18.6562H131.511V27ZM144.13 21.0859C144.13 20.4818 144.21 19.9714 144.372 19.5547C144.533 19.138 144.765 18.8203 145.067 18.6016C145.369 18.3776 145.734 18.2656 146.161 18.2656C146.536 18.2656 146.859 18.349 147.13 18.5156C147.401 18.6771 147.611 18.901 147.762 19.1875C147.919 19.474 148.007 19.7995 148.028 20.1641H150.473C150.473 20.1172 150.473 20.0703 150.473 20.0234C150.473 19.9714 150.473 19.9193 150.473 19.8672C150.463 19.3047 150.346 18.7969 150.122 18.3438C149.903 17.8854 149.601 17.4922 149.216 17.1641C148.83 16.8359 148.377 16.5859 147.856 16.4141C147.335 16.237 146.765 16.1484 146.145 16.1484C145.156 16.1484 144.315 16.349 143.622 16.75C142.934 17.151 142.411 17.7214 142.052 18.4609C141.692 19.1953 141.512 20.0703 141.512 21.0859V22.2734C141.512 23.2839 141.69 24.1562 142.044 24.8906C142.403 25.625 142.927 26.1927 143.614 26.5938C144.307 26.9948 145.151 27.1953 146.145 27.1953C146.968 27.1953 147.703 27.0443 148.348 26.7422C148.994 26.4349 149.505 26.0078 149.88 25.4609C150.26 24.9089 150.458 24.2682 150.473 23.5391C150.473 23.4922 150.473 23.4427 150.473 23.3906C150.473 23.3385 150.473 23.2865 150.473 23.2344H148.028C148.007 23.5885 147.921 23.9036 147.77 24.1797C147.619 24.4557 147.406 24.6745 147.13 24.8359C146.859 24.9922 146.536 25.0703 146.161 25.0703C145.734 25.0703 145.367 24.9635 145.059 24.75C144.757 24.5365 144.526 24.2214 144.364 23.8047C144.208 23.388 144.13 22.8802 144.13 22.2812V21.0859ZM151.227 27H153.719V15.7734H151.227V27ZM154.941 27H157.433V18.6562H154.941V27ZM154.698 16.2734C154.698 16.6484 154.834 16.9505 155.105 17.1797C155.381 17.4036 155.74 17.5156 156.183 17.5156C156.631 17.5156 156.99 17.4036 157.261 17.1797C157.532 16.9505 157.667 16.6484 157.667 16.2734C157.667 15.8932 157.529 15.5885 157.253 15.3594C156.982 15.1302 156.626 15.0156 156.183 15.0156C155.735 15.0156 155.376 15.1302 155.105 15.3594C154.834 15.5885 154.698 15.8932 154.698 16.2734ZM163.561 27.0938C164.202 27.0938 164.751 26.9427 165.209 26.6406C165.668 26.3385 166.019 25.9036 166.264 25.3359C166.509 24.7682 166.631 24.0859 166.631 23.2891V22.3594C166.631 21.5625 166.509 20.8828 166.264 20.3203C166.024 19.7526 165.678 19.3177 165.225 19.0156C164.772 18.7135 164.222 18.5625 163.577 18.5625C163.285 18.5625 163.011 18.5964 162.756 18.6641C162.506 18.7266 162.277 18.8177 162.069 18.9375C161.866 19.0573 161.689 19.2057 161.538 19.3828C161.386 19.5599 161.269 19.7578 161.186 19.9766H161.061V18.6562H158.592V29.7656H161.084V25.7031H161.209C161.329 26 161.501 26.2526 161.725 26.4609C161.949 26.6641 162.217 26.8203 162.53 26.9297C162.842 27.0391 163.186 27.0938 163.561 27.0938ZM162.592 25.1719C162.285 25.1719 162.019 25.0938 161.795 24.9375C161.571 24.7812 161.397 24.5625 161.272 24.2812C161.147 23.9948 161.084 23.6615 161.084 23.2812V22.4453C161.084 22.0391 161.144 21.6927 161.264 21.4062C161.384 21.1146 161.556 20.8906 161.78 20.7344C162.004 20.5781 162.269 20.5 162.577 20.5C162.894 20.5 163.163 20.5807 163.381 20.7422C163.605 20.8984 163.774 21.1276 163.889 21.4297C164.004 21.7266 164.061 22.0911 164.061 22.5234V23.1406C164.061 23.5677 164.004 23.9323 163.889 24.2344C163.774 24.5365 163.608 24.7682 163.389 24.9297C163.17 25.0911 162.905 25.1719 162.592 25.1719ZM167.041 21.1641C167.041 21.7057 167.158 22.1432 167.392 22.4766C167.632 22.8099 167.952 23.0677 168.353 23.25C168.754 23.4323 169.197 23.5703 169.681 23.6641C170.03 23.7318 170.361 23.7969 170.673 23.8594C170.986 23.9167 171.241 24.0052 171.439 24.125C171.637 24.2396 171.736 24.4167 171.736 24.6562C171.736 24.8125 171.694 24.9583 171.611 25.0938C171.528 25.224 171.397 25.3281 171.22 25.4062C171.043 25.4792 170.811 25.5156 170.525 25.5156C170.27 25.5156 170.051 25.4792 169.869 25.4062C169.692 25.3281 169.554 25.2214 169.455 25.0859C169.356 24.9505 169.296 24.7969 169.275 24.625H166.861C166.861 25.1198 166.996 25.5573 167.267 25.9375C167.543 26.3177 167.944 26.6172 168.47 26.8359C168.996 27.0495 169.642 27.1562 170.408 27.1562C171.205 27.1562 171.879 27.0443 172.431 26.8203C172.989 26.5964 173.413 26.276 173.705 25.8594C173.996 25.4427 174.142 24.9453 174.142 24.3672C174.142 23.8724 174.035 23.4661 173.822 23.1484C173.614 22.8307 173.319 22.5807 172.939 22.3984C172.559 22.2109 172.114 22.0755 171.603 21.9922C171.384 21.9609 171.147 21.9271 170.892 21.8906C170.637 21.849 170.395 21.7943 170.166 21.7266C169.942 21.6536 169.757 21.5599 169.611 21.4453C169.465 21.3255 169.392 21.1693 169.392 20.9766C169.392 20.7266 169.489 20.5234 169.681 20.3672C169.874 20.2109 170.15 20.1328 170.509 20.1328C170.765 20.1328 170.976 20.1771 171.142 20.2656C171.309 20.349 171.436 20.4583 171.525 20.5938C171.619 20.724 171.673 20.8646 171.689 21.0156H173.861C173.861 20.4635 173.718 20.0026 173.431 19.6328C173.15 19.2578 172.759 18.9766 172.259 18.7891C171.759 18.6016 171.189 18.5078 170.548 18.5078C169.929 18.5078 169.351 18.5964 168.814 18.7734C168.283 18.9505 167.853 19.2344 167.525 19.625C167.202 20.0104 167.041 20.5234 167.041 21.1641Z" fill="#262F36"/>
</svg>
