<svg width="210" height="44" viewBox="0 0 210 44" fill="none" xmlns="http://www.w3.org/2000/svg">
<rect x="1" y="1" width="208" height="42" rx="21" stroke="#C9CACC" stroke-width="2"/>
<path d="M51.75 16.3359H47.2422V27H49.7656V23.1875H51.2422L53.0469 27H55.8906L53.7656 22.8281C54.0417 22.7135 54.3255 22.526 54.6172 22.2656C54.9141 22.0052 55.1641 21.6719 55.3672 21.2656C55.5703 20.8542 55.6719 20.375 55.6719 19.8281C55.6719 19.125 55.5208 18.513 55.2188 17.9922C54.9167 17.4661 54.474 17.0599 53.8906 16.7734C53.3073 16.4818 52.5938 16.3359 51.75 16.3359ZM49.7656 21.3672V18.2578H51.3672C51.8411 18.2578 52.237 18.3932 52.5547 18.6641C52.8724 18.9349 53.0312 19.3281 53.0312 19.8438C53.0312 20.3542 52.875 20.737 52.5625 20.9922C52.25 21.2422 51.8438 21.3672 51.3438 21.3672H49.7656ZM59.9797 27.1562C60.6203 27.1562 61.1672 27.0703 61.6203 26.8984C62.0786 26.7214 62.4536 26.4948 62.7453 26.2188C63.037 25.9375 63.2531 25.638 63.3938 25.3203C63.5396 25.0026 63.6203 24.7031 63.6359 24.4219H61.3547C61.3339 24.5938 61.2609 24.7474 61.1359 24.8828C61.0109 25.0182 60.8469 25.125 60.6438 25.2031C60.4458 25.276 60.2219 25.3125 59.9719 25.3125C59.5292 25.3125 59.162 25.1693 58.8703 24.8828C58.5839 24.5911 58.4406 24.2057 58.4406 23.7266V23.3438H63.6906V22.4219C63.6906 21.6094 63.5292 20.9115 63.2063 20.3281C62.8833 19.7396 62.4354 19.2891 61.8625 18.9766C61.2896 18.6641 60.6255 18.5078 59.8703 18.5078C59.162 18.5078 58.5161 18.6536 57.9328 18.9453C57.3495 19.2318 56.8833 19.6667 56.5344 20.25C56.1906 20.8281 56.0188 21.5521 56.0188 22.4219V23.2188C56.0188 24.0833 56.1828 24.8099 56.5109 25.3984C56.8443 25.9818 57.3078 26.4219 57.9016 26.7188C58.5005 27.0104 59.1932 27.1562 59.9797 27.1562ZM58.4406 21.9453C58.4406 21.9349 58.4406 21.9271 58.4406 21.9219C58.4406 21.9115 58.4406 21.901 58.4406 21.8906C58.4406 21.5729 58.5005 21.2943 58.6203 21.0547C58.7453 20.8151 58.9146 20.6276 59.1281 20.4922C59.3469 20.3568 59.5995 20.2891 59.8859 20.2891C60.1724 20.2891 60.4224 20.3568 60.6359 20.4922C60.8495 20.6276 61.0135 20.8151 61.1281 21.0547C61.2479 21.2943 61.3078 21.5729 61.3078 21.8906C61.3078 21.901 61.3078 21.9115 61.3078 21.9219C61.3078 21.9271 61.3078 21.9349 61.3078 21.9453H58.4406ZM67.9359 28.2969C67.6859 28.2969 67.4594 28.2656 67.2563 28.2031C67.0583 28.1458 66.8943 28.0573 66.7641 27.9375C66.6391 27.8229 66.5557 27.6849 66.5141 27.5234H64.1469C64.1625 27.9661 64.3031 28.3776 64.5688 28.7578C64.8344 29.1432 65.238 29.4531 65.7797 29.6875C66.3214 29.9271 67.0193 30.0469 67.8734 30.0469C68.3682 30.0469 68.8578 29.9948 69.3422 29.8906C69.8318 29.7917 70.2745 29.6198 70.6703 29.375C71.0661 29.1354 71.3813 28.8125 71.6156 28.4062C71.8552 28 71.975 27.4948 71.975 26.8906V18.6562H69.5141V19.9531H69.3969C69.3031 19.6927 69.1469 19.4583 68.9281 19.25C68.7146 19.0365 68.449 18.8698 68.1313 18.75C67.8135 18.625 67.4516 18.5625 67.0453 18.5625C66.4359 18.5625 65.8995 18.7109 65.4359 19.0078C64.9776 19.2995 64.6182 19.7292 64.3578 20.2969C64.1026 20.8594 63.975 21.5547 63.975 22.3828V23.0312C63.975 23.8542 64.1026 24.5495 64.3578 25.1172C64.6182 25.6849 64.9802 26.1146 65.4438 26.4062C65.9073 26.6979 66.4411 26.8438 67.0453 26.8438C67.3422 26.8438 67.6156 26.8099 67.8656 26.7422C68.1208 26.6745 68.3448 26.5833 68.5375 26.4688C68.7354 26.349 68.9047 26.2109 69.0453 26.0547C69.1859 25.8932 69.2927 25.7188 69.3656 25.5312H69.4906V26.6875C69.4906 27.2031 69.363 27.599 69.1078 27.875C68.8526 28.1562 68.462 28.2969 67.9359 28.2969ZM68.0375 20.5C68.3344 20.5 68.5896 20.5781 68.8031 20.7344C69.0219 20.8906 69.1911 21.112 69.3109 21.3984C69.4307 21.6849 69.4906 22.0208 69.4906 22.4062V23.1641C69.4906 23.5443 69.4307 23.8776 69.3109 24.1641C69.1964 24.4453 69.0323 24.6667 68.8188 24.8281C68.6052 24.9844 68.3474 25.0625 68.0453 25.0625C67.7536 25.0625 67.4932 24.9844 67.2641 24.8281C67.0349 24.6719 66.8552 24.4453 66.725 24.1484C66.6 23.8464 66.5375 23.4844 66.5375 23.0625V22.4922C66.5375 22.0703 66.6 21.7109 66.725 21.4141C66.85 21.1172 67.0245 20.8906 67.2484 20.7344C67.4776 20.5781 67.7406 20.5 68.0375 20.5ZM76.5641 27.1562C77.2047 27.1562 77.7516 27.0703 78.2047 26.8984C78.663 26.7214 79.038 26.4948 79.3297 26.2188C79.6214 25.9375 79.8375 25.638 79.9781 25.3203C80.124 25.0026 80.2047 24.7031 80.2203 24.4219H77.9391C77.9182 24.5938 77.8453 24.7474 77.7203 24.8828C77.5953 25.0182 77.4312 25.125 77.2281 25.2031C77.0302 25.276 76.8062 25.3125 76.5562 25.3125C76.1135 25.3125 75.7464 25.1693 75.4547 24.8828C75.1682 24.5911 75.025 24.2057 75.025 23.7266V23.3438H80.275V22.4219C80.275 21.6094 80.1135 20.9115 79.7906 20.3281C79.4677 19.7396 79.0198 19.2891 78.4469 18.9766C77.874 18.6641 77.2099 18.5078 76.4547 18.5078C75.7464 18.5078 75.1005 18.6536 74.5172 18.9453C73.9339 19.2318 73.4677 19.6667 73.1187 20.25C72.775 20.8281 72.6031 21.5521 72.6031 22.4219V23.2188C72.6031 24.0833 72.7672 24.8099 73.0953 25.3984C73.4286 25.9818 73.8922 26.4219 74.4859 26.7188C75.0849 27.0104 75.7776 27.1562 76.5641 27.1562ZM75.025 21.9453C75.025 21.9349 75.025 21.9271 75.025 21.9219C75.025 21.9115 75.025 21.901 75.025 21.8906C75.025 21.5729 75.0849 21.2943 75.2047 21.0547C75.3297 20.8151 75.499 20.6276 75.7125 20.4922C75.9312 20.3568 76.1839 20.2891 76.4703 20.2891C76.7568 20.2891 77.0068 20.3568 77.2203 20.4922C77.4339 20.6276 77.5979 20.8151 77.7125 21.0547C77.8323 21.2943 77.8922 21.5729 77.8922 21.8906C77.8922 21.901 77.8922 21.9115 77.8922 21.9219C77.8922 21.9271 77.8922 21.9349 77.8922 21.9453H75.025ZM80.9188 27H83.4109V22.3906C83.4109 22.0156 83.4708 21.6953 83.5906 21.4297C83.7156 21.1589 83.8875 20.9531 84.1063 20.8125C84.3302 20.6667 84.5854 20.5938 84.8719 20.5938C85.0958 20.5938 85.3068 20.6432 85.5047 20.7422C85.7026 20.8359 85.8641 20.9948 85.9891 21.2188C86.1141 21.4427 86.1766 21.7526 86.1766 22.1484V27H88.6688V21.4844C88.6688 20.4948 88.4188 19.7552 87.9188 19.2656C87.4188 18.776 86.7495 18.5312 85.9109 18.5312C85.3901 18.5312 84.9604 18.6198 84.6219 18.7969C84.2885 18.9688 84.0281 19.1771 83.8406 19.4219C83.6583 19.6615 83.5307 19.888 83.4578 20.1016H83.3328V18.6562H80.9188V27ZM93.2578 27.1562C93.8984 27.1562 94.4453 27.0703 94.8984 26.8984C95.3568 26.7214 95.7318 26.4948 96.0234 26.2188C96.3151 25.9375 96.5312 25.638 96.6719 25.3203C96.8177 25.0026 96.8984 24.7031 96.9141 24.4219H94.6328C94.612 24.5938 94.5391 24.7474 94.4141 24.8828C94.2891 25.0182 94.125 25.125 93.9219 25.2031C93.724 25.276 93.5 25.3125 93.25 25.3125C92.8073 25.3125 92.4401 25.1693 92.1484 24.8828C91.862 24.5911 91.7188 24.2057 91.7188 23.7266V23.3438H96.9688V22.4219C96.9688 21.6094 96.8073 20.9115 96.4844 20.3281C96.1615 19.7396 95.7135 19.2891 95.1406 18.9766C94.5677 18.6641 93.9036 18.5078 93.1484 18.5078C92.4401 18.5078 91.7943 18.6536 91.2109 18.9453C90.6276 19.2318 90.1615 19.6667 89.8125 20.25C89.4688 20.8281 89.2969 21.5521 89.2969 22.4219V23.2188C89.2969 24.0833 89.4609 24.8099 89.7891 25.3984C90.1224 25.9818 90.5859 26.4219 91.1797 26.7188C91.7786 27.0104 92.4714 27.1562 93.2578 27.1562ZM91.7188 21.9453C91.7188 21.9349 91.7188 21.9271 91.7188 21.9219C91.7188 21.9115 91.7188 21.901 91.7188 21.8906C91.7188 21.5729 91.7786 21.2943 91.8984 21.0547C92.0234 20.8151 92.1927 20.6276 92.4062 20.4922C92.625 20.3568 92.8776 20.2891 93.1641 20.2891C93.4505 20.2891 93.7005 20.3568 93.9141 20.4922C94.1276 20.6276 94.2917 20.8151 94.4062 21.0547C94.526 21.2943 94.5859 21.5729 94.5859 21.8906C94.5859 21.901 94.5859 21.9115 94.5859 21.9219C94.5859 21.9271 94.5859 21.9349 94.5859 21.9453H91.7188ZM97.6672 27H100.23V22.4766C100.23 22.1068 100.295 21.7839 100.425 21.5078C100.555 21.2266 100.758 21.0104 101.034 20.8594C101.31 20.7031 101.662 20.625 102.089 20.625C102.277 20.625 102.454 20.6354 102.62 20.6562C102.787 20.6719 102.915 20.6953 103.003 20.7266V18.6094C102.92 18.5833 102.818 18.5651 102.698 18.5547C102.579 18.5443 102.43 18.5391 102.253 18.5391C101.852 18.5391 101.514 18.6198 101.237 18.7812C100.961 18.9427 100.745 19.1354 100.589 19.3594C100.433 19.5781 100.329 19.7839 100.277 19.9766H100.159V18.6562H97.6672V27ZM105.6 27.125C106.011 27.125 106.36 27.0703 106.647 26.9609C106.939 26.8464 107.176 26.7005 107.358 26.5234C107.545 26.3464 107.686 26.1641 107.78 25.9766H107.897V27H110.233V21.4531C110.233 20.7344 110.071 20.1615 109.748 19.7344C109.431 19.3073 109.001 19 108.459 18.8125C107.923 18.625 107.324 18.5312 106.662 18.5312C106.022 18.5312 105.48 18.6068 105.037 18.7578C104.595 18.9036 104.238 19.1042 103.967 19.3594C103.696 19.6094 103.496 19.8932 103.366 20.2109C103.235 20.5234 103.162 20.8464 103.147 21.1797H105.483C105.504 21.0182 105.558 20.875 105.647 20.75C105.741 20.625 105.868 20.5286 106.03 20.4609C106.191 20.388 106.389 20.3516 106.623 20.3516C106.978 20.3516 107.259 20.4375 107.467 20.6094C107.676 20.7812 107.78 21.0365 107.78 21.375V22.0703H105.834C104.866 22.0703 104.123 22.2995 103.608 22.7578C103.097 23.2109 102.842 23.8177 102.842 24.5781C102.842 25.375 103.097 26 103.608 26.4531C104.123 26.901 104.787 27.125 105.6 27.125ZM106.459 25.3828C106.157 25.3828 105.886 25.3021 105.647 25.1406C105.412 24.974 105.295 24.724 105.295 24.3906C105.295 24.1094 105.397 23.8802 105.6 23.7031C105.803 23.526 106.1 23.4375 106.491 23.4375H107.78V24.25C107.78 24.474 107.717 24.6719 107.592 24.8438C107.472 25.0104 107.311 25.1432 107.108 25.2422C106.91 25.3359 106.694 25.3828 106.459 25.3828ZM111.838 18.7812H110.509V20.6484H111.783V24.625C111.783 25.2031 111.882 25.6693 112.08 26.0234C112.283 26.3776 112.603 26.6354 113.041 26.7969C113.483 26.9531 114.059 27.0312 114.767 27.0312C115.059 27.0312 115.332 27.0182 115.588 26.9922C115.848 26.9661 116.025 26.9453 116.119 26.9297V25.1406C116.046 25.1458 115.939 25.1536 115.798 25.1641C115.663 25.1693 115.52 25.1719 115.369 25.1719C114.989 25.1719 114.705 25.1016 114.517 24.9609C114.335 24.8151 114.244 24.5573 114.244 24.1875V20.6484H116.072V18.7812H114.244V16.7188H111.838V18.7812ZM120.286 27.1562C120.927 27.1562 121.473 27.0703 121.927 26.8984C122.385 26.7214 122.76 26.4948 123.052 26.2188C123.343 25.9375 123.559 25.638 123.7 25.3203C123.846 25.0026 123.927 24.7031 123.942 24.4219H121.661C121.64 24.5938 121.567 24.7474 121.442 24.8828C121.317 25.0182 121.153 25.125 120.95 25.2031C120.752 25.276 120.528 25.3125 120.278 25.3125C119.835 25.3125 119.468 25.1693 119.177 24.8828C118.89 24.5911 118.747 24.2057 118.747 23.7266V23.3438H123.997V22.4219C123.997 21.6094 123.835 20.9115 123.512 20.3281C123.19 19.7396 122.742 19.2891 122.169 18.9766C121.596 18.6641 120.932 18.5078 120.177 18.5078C119.468 18.5078 118.822 18.6536 118.239 18.9453C117.656 19.2318 117.19 19.6667 116.841 20.25C116.497 20.8281 116.325 21.5521 116.325 22.4219V23.2188C116.325 24.0833 116.489 24.8099 116.817 25.3984C117.151 25.9818 117.614 26.4219 118.208 26.7188C118.807 27.0104 119.499 27.1562 120.286 27.1562ZM118.747 21.9453C118.747 21.9349 118.747 21.9271 118.747 21.9219C118.747 21.9115 118.747 21.901 118.747 21.8906C118.747 21.5729 118.807 21.2943 118.927 21.0547C119.052 20.8151 119.221 20.6276 119.434 20.4922C119.653 20.3568 119.906 20.2891 120.192 20.2891C120.479 20.2891 120.729 20.3568 120.942 20.4922C121.156 20.6276 121.32 20.8151 121.434 21.0547C121.554 21.2943 121.614 21.5729 121.614 21.8906C121.614 21.901 121.614 21.9115 121.614 21.9219C121.614 21.9271 121.614 21.9349 121.614 21.9453H118.747ZM131.592 21.0859C131.592 20.4818 131.673 19.9714 131.834 19.5547C131.996 19.138 132.228 18.8203 132.53 18.6016C132.832 18.3776 133.196 18.2656 133.623 18.2656C133.998 18.2656 134.321 18.349 134.592 18.5156C134.863 18.6771 135.074 18.901 135.225 19.1875C135.381 19.474 135.47 19.7995 135.491 20.1641H137.936C137.936 20.1172 137.936 20.0703 137.936 20.0234C137.936 19.9714 137.936 19.9193 137.936 19.8672C137.926 19.3047 137.808 18.7969 137.584 18.3438C137.366 17.8854 137.064 17.4922 136.678 17.1641C136.293 16.8359 135.84 16.5859 135.319 16.4141C134.798 16.237 134.228 16.1484 133.608 16.1484C132.618 16.1484 131.777 16.349 131.084 16.75C130.397 17.151 129.873 17.7214 129.514 18.4609C129.155 19.1953 128.975 20.0703 128.975 21.0859V22.2734C128.975 23.2839 129.152 24.1562 129.506 24.8906C129.866 25.625 130.389 26.1927 131.077 26.5938C131.769 26.9948 132.613 27.1953 133.608 27.1953C134.431 27.1953 135.165 27.0443 135.811 26.7422C136.457 26.4349 136.967 26.0078 137.342 25.4609C137.722 24.9089 137.92 24.2682 137.936 23.5391C137.936 23.4922 137.936 23.4427 137.936 23.3906C137.936 23.3385 137.936 23.2865 137.936 23.2344H135.491C135.47 23.5885 135.384 23.9036 135.233 24.1797C135.082 24.4557 134.868 24.6745 134.592 24.8359C134.321 24.9922 133.998 25.0703 133.623 25.0703C133.196 25.0703 132.829 24.9635 132.522 24.75C132.22 24.5365 131.988 24.2214 131.827 23.8047C131.67 23.388 131.592 22.8802 131.592 22.2812V21.0859ZM138.689 27H141.181V15.7734H138.689V27ZM142.403 27H144.895V18.6562H142.403V27ZM142.161 16.2734C142.161 16.6484 142.296 16.9505 142.567 17.1797C142.843 17.4036 143.203 17.5156 143.645 17.5156C144.093 17.5156 144.453 17.4036 144.723 17.1797C144.994 16.9505 145.13 16.6484 145.13 16.2734C145.13 15.8932 144.992 15.5885 144.716 15.3594C144.445 15.1302 144.088 15.0156 143.645 15.0156C143.197 15.0156 142.838 15.1302 142.567 15.3594C142.296 15.5885 142.161 15.8932 142.161 16.2734ZM151.023 27.0938C151.664 27.0938 152.214 26.9427 152.672 26.6406C153.13 26.3385 153.482 25.9036 153.727 25.3359C153.971 24.7682 154.094 24.0859 154.094 23.2891V22.3594C154.094 21.5625 153.971 20.8828 153.727 20.3203C153.487 19.7526 153.141 19.3177 152.688 19.0156C152.234 18.7135 151.685 18.5625 151.039 18.5625C150.747 18.5625 150.474 18.5964 150.219 18.6641C149.969 18.7266 149.74 18.8177 149.531 18.9375C149.328 19.0573 149.151 19.2057 149 19.3828C148.849 19.5599 148.732 19.7578 148.648 19.9766H148.523V18.6562H146.055V29.7656H148.547V25.7031H148.672C148.792 26 148.964 26.2526 149.188 26.4609C149.411 26.6641 149.68 26.8203 149.992 26.9297C150.305 27.0391 150.648 27.0938 151.023 27.0938ZM150.055 25.1719C149.747 25.1719 149.482 25.0938 149.258 24.9375C149.034 24.7812 148.859 24.5625 148.734 24.2812C148.609 23.9948 148.547 23.6615 148.547 23.2812V22.4453C148.547 22.0391 148.607 21.6927 148.727 21.4062C148.846 21.1146 149.018 20.8906 149.242 20.7344C149.466 20.5781 149.732 20.5 150.039 20.5C150.357 20.5 150.625 20.5807 150.844 20.7422C151.068 20.8984 151.237 21.1276 151.352 21.4297C151.466 21.7266 151.523 22.0911 151.523 22.5234V23.1406C151.523 23.5677 151.466 23.9323 151.352 24.2344C151.237 24.5365 151.07 24.7682 150.852 24.9297C150.633 25.0911 150.367 25.1719 150.055 25.1719ZM154.503 21.1641C154.503 21.7057 154.62 22.1432 154.855 22.4766C155.094 22.8099 155.415 23.0677 155.816 23.25C156.217 23.4323 156.659 23.5703 157.144 23.6641C157.493 23.7318 157.823 23.7969 158.136 23.8594C158.448 23.9167 158.704 24.0052 158.902 24.125C159.099 24.2396 159.198 24.4167 159.198 24.6562C159.198 24.8125 159.157 24.9583 159.073 25.0938C158.99 25.224 158.86 25.3281 158.683 25.4062C158.506 25.4792 158.274 25.5156 157.988 25.5156C157.732 25.5156 157.514 25.4792 157.331 25.4062C157.154 25.3281 157.016 25.2214 156.917 25.0859C156.818 24.9505 156.758 24.7969 156.738 24.625H154.323C154.323 25.1198 154.459 25.5573 154.73 25.9375C155.006 26.3177 155.407 26.6172 155.933 26.8359C156.459 27.0495 157.105 27.1562 157.87 27.1562C158.667 27.1562 159.342 27.0443 159.894 26.8203C160.451 26.5964 160.876 26.276 161.167 25.8594C161.459 25.4427 161.605 24.9453 161.605 24.3672C161.605 23.8724 161.498 23.4661 161.284 23.1484C161.076 22.8307 160.782 22.5807 160.402 22.3984C160.021 22.2109 159.576 22.0755 159.066 21.9922C158.847 21.9609 158.61 21.9271 158.355 21.8906C158.099 21.849 157.857 21.7943 157.628 21.7266C157.404 21.6536 157.219 21.5599 157.073 21.4453C156.928 21.3255 156.855 21.1693 156.855 20.9766C156.855 20.7266 156.951 20.5234 157.144 20.3672C157.336 20.2109 157.613 20.1328 157.972 20.1328C158.227 20.1328 158.438 20.1771 158.605 20.2656C158.771 20.349 158.899 20.4583 158.988 20.5938C159.081 20.724 159.136 20.8646 159.152 21.0156H161.323C161.323 20.4635 161.18 20.0026 160.894 19.6328C160.613 19.2578 160.222 18.9766 159.722 18.7891C159.222 18.6016 158.652 18.5078 158.011 18.5078C157.391 18.5078 156.813 18.5964 156.277 18.7734C155.745 18.9505 155.316 19.2344 154.988 19.625C154.665 20.0104 154.503 20.5234 154.503 21.1641Z" fill="#262F36"/>
</svg>
